SplineFontDB: 3.0
FontName: Career
FullName: Career
FamilyName: Career
Weight: Medium
Copyright: Created by Antoine Gelgon with FontForge 2.0 (http://fontforge.sf.net)\n\nUnder OpenFont License http://scripts.sil.org/cms/scripts/page.php?site_id=nrsi&id=OFL\n
UComments: "2014-5-9: Created." 
FontLog: "FontLog Career Caslon+AAoACgAK-14/08/2014 : Antoine Gelgon+AAoA--Modified vector of 's'+AAoA--creation of the 'C' and 'R'+AAoACgAA-15/08/2014 : Antoine Gelgon+AAoA--Creation of the 'E' 'F' 'I' 'D' 'A' 'N'+AAoA--modification of the finestroke on the 'L'+AAoA--Normalization of finestroke around 16 large for capitals.+AAoACgAA-18/08/2014 : Antoine Gelgon+AAoA--Creation of the 'O' 'Q' 'M' 'K'+AAoACgAA-22/08/2014 : Antoine Gelgon+AAoA--Creation of the U V W+AAoA--Modification of the w v+AAoACgAA-25/08/2014 : Antoine Gelgon+AAoA--Creation of the X Y G+AAoA--Modification f's drop.+AAoA--Optical modifications for O C Q S. these letters have been extended+AAoACgAA-29/08/2014 : Antoine Gelgon+AAoA--Creation of the Z+AAoA--All uppercases and lowercase were drawn." 
Version: 001.000
ItalicAngle: 0
UnderlinePosition: -100
UnderlineWidth: 50
Ascent: 800
Descent: 200
UFOAscent: 800
UFODescent: -200
LayerCount: 2
Layer: 0 0 "Arri+AOgA-re"  1
Layer: 1 0 "Avant"  0
FSType: 8
OS2Version: 0
OS2_WeightWidthSlopeOnly: 0
OS2_UseTypoMetrics: 0
CreationTime: 1407112779
ModificationTime: 1426458796
PfmFamily: 17
TTFWeight: 500
TTFWidth: 5
LineGap: 90
VLineGap: 0
OS2TypoAscent: 0
OS2TypoAOffset: 1
OS2TypoDescent: 0
OS2TypoDOffset: 1
OS2TypoLinegap: 90
OS2WinAscent: 0
OS2WinAOffset: 1
OS2WinDescent: 0
OS2WinDOffset: 1
HheadAscent: 0
HheadAOffset: 1
HheadDescent: 0
HheadDOffset: 1
OS2Vendor: 'PfEd'
Lookup: 3 0 0 "Substitution alternative dans Latin lookup 0"  {"Substitution alternative dans Latin lookup 0-1"  } ['    ' ('DFLT' <'dflt' > 'latn' <'dflt' > ) ]
Lookup: 1 15 0 "Substitution multiple dans Latin lookup 0"  {"Substitution multiple dans Latin lookup 0-1"  } ['a   ' ('a   ' <'dflt' > ) ]

StartChar: a
Encoding: 97 97 0
Width: 514
VWidth: 0
GlyphClass: 2
Flags: W
HStem: -10 45<112 234.47> 489 21<230.437 335.5>
VStem: 24 149<283.729 369.922> 26 138<50.5949 153.83> 306 134<35.1406 458.683> 316 8<80.167 118>
LayerCount: 2
Fore
SplineSet
324 118 m 5xd4
 324 43 219 -10 142 -10 c 4
 82 -10 26 32 26 91 c 5
 24 175 117 213 176 240 c 4
 222 261 286 284 335 304 c 5
 337 292 338 286 339 285 c 5
 245 253 160 236 164 125 c 4
 165 81 173 35 227 35 c 4
 262 35 316 80.167 316 129 c 5
 324 118 l 5xd4
173 363 m 5xe8
 173 302 146 252 89 253 c 4
 54 253 23 277 24 311 c 4
 24 334 37 361 63 393 c 4
 108 446 201 510 300 510 c 4
 371 510 415 482 433 430 c 4
 437 416 440 402 440 387 c 6
 440 62 l 6
 440 46 449 37 463 33 c 4
 471 31 483 35 497 45 c 5
 504 40 l 5
 488 19 444 -10 404 -10 c 4
 345 -10 306 17 306 70 c 6
 306 430 l 6
 306 463 301 488 267 489 c 5
 212 489 172 465 172 410 c 5
 173 363 l 5xe8
EndSplineSet
Validated: 37
EndChar

StartChar: o
Encoding: 111 111 1
Width: 594
VWidth: 0
GlyphClass: 2
Flags: W
PickledData: "(dp1
S'com.fontlab.hintData'
p2
(dp3
S'vhints'
p4
((dp5
S'position'
p6
I10
sS'width'
p7
I162
s(dp8
g6
I384
sg7
I162
stp9
sS'hhints'
p10
((dp11
g6
I-12
sg7
I20
s(dp12
g6
I491
sg7
I17
stp13
ss."
HStem: -10 19<252.782 339.466> 493 17<254.504 337.729>
VStem: 29 162<145.16 356.074> 402 163<144.991 353.681>
LayerCount: 2
Fore
SplineSet
296 493 m 4
 189.209 493 191 373.878 191 252 c 4
 191 127.969 188.678 9 296 9 c 4
 404.293 9 402 127.198 402 252 c 4
 402 374.787 403.714 493 296 493 c 4
29 251 m 4
 29 325 55 386 107 436 c 4
 159 485 222 510 296 510 c 4
 370 510 434 485 486 436 c 4
 538 386 564 325 565 251 c 5
 564 175 538 113 486 64 c 4
 434 14 370 -10 296 -10 c 4
 222 -10 159 14 107 64 c 4
 55 113 29 175 29 251 c 4
EndSplineSet
Validated: 33
EndChar

StartChar: r
Encoding: 114 114 2
Width: 467
VWidth: 0
GlyphClass: 2
Flags: W
PickledData: "(dp1
S'com.fontlab.hintData'
p2
(dp3
S'vhints'
p4
((dp5
S'position'
p6
I97
sS'width'
p7
I134
stp8
sS'hhints'
p9
((dp10
g6
I0
sg7
I8
s(dp11
g6
I480
sg7
I20
stp12
ss."
HStem: 0 8<52 64.3199 293.439 305> 414 96<284.5 407.5> 480 20G<224.5 245>
VStem: 111 134<22.1807 391.289>
LayerCount: 2
Fore
SplineSet
245 59 m 2xb0
 245 46 249 35 260 27 c 0
 269 20 279 15 290 12 c 2
 305 8 l 1
 305 0 l 1
 222.831 10.7295 139.832 10.7246 52 0 c 1
 52 2 52 5 51 8 c 1
 66 12 l 2
 77 14 87 19 96 27 c 1
 107 35 111 44 111 54 c 1
 111 320 l 1
 111 350 103 375 87 394 c 0
 71 413 50 426 24 433 c 1
 24 439 l 1
 78 447 120 455 151 463 c 0
 182 471 211 483 238 500 c 1
 245 499 l 1
 245 59 l 2xb0
302 414 m 4xd0
 273 414 240 311 226 291 c 5
 232 348 l 1
 268 400 296 510 384 510 c 0
 431 510 457 474 457 427 c 0
 457 383 429 346 391 346 c 0
 356 346 330 365 313 404 c 0
 311 411 307 414 302 414 c 4xd0
EndSplineSet
EndChar

StartChar: d
Encoding: 100 100 3
Width: 593
VWidth: 0
GlyphClass: 2
Flags: W
PickledData: "(dp1
S'com.fontlab.hintData'
p2
(dp3
S'vhints'
p4
((dp5
S'position'
p6
I10
sS'width'
p7
I145
s(dp8
g6
I366
sg7
I29
s(dp9
g6
I367
sg7
I137
stp10
sS'hhints'
p11
((dp12
g6
I-8
sg7
I51
s(dp13
g6
I36
sg7
I9
s(dp14
g6
I483
sg7
I24
stp15
ss."
HStem: -10 51<248.315 327.131> 36 12<556.452 581.996> 486 24<238.53 330.786> 781 20G<505 522>
VStem: 29 144<143.378 344.981> 384 30<73 242 361 448> 582 1<38.0469 40.8594 43 44.907>
LayerCount: 2
Fore
SplineSet
455 108 m 0,0,-1
224 -10 m 0,1,-1
 97 -10 29 101 29 232 c 0,4,-1
 29 383 130 510 281 510 c 0,7,-1
 365 510 416 448 414 361 c 1,10,-1
 413 242 l 1,11,-1
 413 73 377 -10 224 -10 c 0,1,-1
385 248 m 0,14,-1
 385 361 396 486 282 486 c 0,17,-1
 210 486 173 413 173 273 c 0,20,-1
 173 174 212 42 305 41 c 1,23,-1
 395 39 385 159 385 248 c 0,14,-1
299 739 m 5,26,-1
 342 746 372 751 388 754 c 4,29,-1
 404 757 424 762 447 770 c 4,32,-1
 471 778 495 788 515 801 c 5,35,-1
 522 800 l 5,36,-1
 522 108 l 6,37,-1
 522 93 527 81 537 70 c 4,40,-1
 547 60 557 52 567 48 c 4,43,-1
 577 44 582 43 582 45 c 5,46,-1
 583 43 583 42 583 41 c 4,49,-1
 583 40 583 39 582 38 c 4,52,-1
 582 37 581 36 581 36 c 5,55,-1
 560 38 527 34 482 24 c 4,58,-1
 438 14 407 4 391 -4 c 5,61,-1
 384 0 l 5,62,-1
 384 620 l 6,63,-1
 384 651 379 676 363 695 c 4,66,-1
 348 714 326 727 300 733 c 5,69,-1
 299 739 l 5,26,-1
EndSplineSet
EndChar

StartChar: s
Encoding: 115 115 4
Width: 436
VWidth: 0
GlyphClass: 2
Flags: W
PickledData: "(dp1
S'com.fontlab.hintData'
p2
(dp3
S'vhints'
p4
((dp5
S'position'
p6
I47
sS'width'
p7
I8
stp8
sS'hhints'
p9
((dp10
g6
I-12
sg7
I18
s(dp11
g6
I490
sg7
I21
stp12
ss."
HStem: -10 18<214.575 280.62> 489 21<165.066 231.581>
VStem: 60 8<203.302 216> 308.047 101.953<78.9899 127.352>
LayerCount: 2
Fore
SplineSet
138.25 436.75 m 21
 138.25 328 410 351.333 410 151.002 c 5
 410 65 325 -10 227 -10 c 4
 137 -10 57 36 57 36 c 5
 60 216 l 5
 68 216 l 5
 88 127 180 8 248 8 c 4
 307.713 8 308.047 69 308.047 69 c 5
 307.713 205 39.833 189.5 39.833 348.167 c 4
 39.833 421.5 118.995 510 227 510 c 5
 320 510 353 467 353 467 c 5
 368 324 l 5
 360 324 l 5
 296 443 237.012 489 195 489 c 4
 141.25 489 138.25 436.75 138.25 436.75 c 21
EndSplineSet
Validated: 1
EndChar

StartChar: e
Encoding: 101 101 5
Width: 543
VWidth: 0
GlyphClass: 2
Flags: W
PickledData: "(dp1
S'com.fontlab.hintData'
p2
(dp3
S'vhints'
p4
((dp5
S'position'
p6
I10
sS'width'
p7
I343
stp8
sS'hhints'
p9
((dp10
g6
I-11
sg7
I100
s(dp11
g6
I288
sg7
I18
s(dp12
g6
I491
sg7
I17
stp13
ss."
HStem: -11 100<277.309 388.034> 288 18<150 507> 493 17<254.113 323.059>
VStem: 33 343<288 384>
LayerCount: 2
Fore
SplineSet
33 249 m 4
 33 396 146 510 293 510 c 4
 425 510 510 384 510 288 c 5
 376 288 l 5
 376 384 373 493 293 493 c 4
 111 493 135 89 359 89 c 4
 396 89 455 93 499 163 c 5
 509 162 l 5
 509 158.917 465 -11 292 -11 c 5
 144 -11 33 100 33 249 c 4
510 288 m 5
 150 288 l 5
 142 306 l 5
 507 306 l 5
 510 288 l 5
EndSplineSet
Validated: 37
EndChar

StartChar: n
Encoding: 110 110 7
Width: 617
VWidth: 0
GlyphClass: 2
Flags: W
PickledData: "(dp1
S'com.fontlab.hintData'
p2
(dp3
S'vhints'
p4
((dp5
S'position'
p6
I97
sS'width'
p7
I134
s(dp8
g6
I213
sg7
I18
s(dp9
g6
I407
sg7
I134
stp10
sS'hhints'
p11
((dp12
g6
I0
sg7
I8
s(dp13
g6
I433
sg7
I6
s(dp14
g6
I480
sg7
I20
stp15
ss."
HStem: 0 8<39.001 51.6205 281.184 294 349 361.355 591.583 603> 433 6<13 21.9637> 480 20G<194.5 234>
VStem: 99 135<22.2129 393.474> 215 19<374 410> 409 135<22.1807 421.89>
LayerCount: 2
Fore
SplineSet
543 365 m 2xec
 544 59 l 1
 543 46 548 35 559 27 c 0
 568 20 578 15 589 12 c 2
 604 8 l 1
 603 5 603 2 603 0 c 1
 521.999 11.3584 436.999 11.4258 349 0 c 1
 349 8 l 1
 364 12 l 2
 374 14 384 19 394 27 c 0
 404 35 409 44 409 54 c 2
 409 316 l 2
 409 575 215 374 215 374 c 1
 215 410 l 1
 457 597 543 492 543 365 c 2xec
13 439 m 5
 110 454 162 460 227 500 c 5
 234 499 l 5xec
 234 59 l 1
 233 33 258 17 279 12 c 2
 294 8 l 1
 294 0 l 1
 203.216 11.6455 104.253 9.75879 39.001 0 c 1
 38.9092 -0.0527344 39 8 39 8 c 1
 54 12 l 1
 72 16 100 33 99 54 c 1xf4
 100 320 l 6
 100 383 64 420 13 433 c 5
 13 439 l 5
EndSplineSet
Validated: 37
EndChar

StartChar: f
Encoding: 102 102 8
Width: 364
VWidth: 0
GlyphClass: 2
Flags: W
PickledData: "(dp1
S'com.fontlab.hintData'
p2
(dp3
S'vhints'
p4
((dp5
S'position'
p6
I70
sS'width'
p7
I133
s(dp8
g6
I223
sg7
I121
stp9
sS'hhints'
p10
((dp11
g6
I0
sg7
I8
s(dp12
g6
I434
sg7
I7
s(dp13
g6
I637
sg7
I170
stp14
ss."
HStem: 0 8<20 31.8261 261.906 274> 434 7<80 213> 776.661 30.3389<208.689 287>
VStem: 80 133<27.3866 441> 233 121<650.434 764.05>
LayerCount: 2
Fore
SplineSet
299 434 m 5
 24 434 l 5
 24 443 l 5
 105 555 130 807 258 807 c 4
 316 807 354 744 354 701 c 5
 353 662 328 637 297 637 c 4
 264 637 233 650 233 696 c 5
 233 726.667 253.667 776.661 219.347 776.661 c 5
 208.333 776.661 184.398 764.625 180 720 c 5
 180 628 216 542 216 480 c 5
 312 480 l 5
 299 434 l 5
80 441 m 5
 213 441 l 5
 213 59 l 5
 213 59 218 35 229 27 c 4
 238 20 248 15 259 12 c 6
 274 8 l 5
 274 0 l 5
 187.89 10.7334 104.11 10.6943 20 0 c 5
 20 8 l 5
 35 12 l 6
 45 14 55 19 65 27 c 4
 75 35 80 44 80 54 c 6
 80 441 l 5
EndSplineSet
Validated: 37
EndChar

StartChar: c
Encoding: 99 99 9
Width: 532
VWidth: 0
GlyphClass: 2
Flags: W
PickledData: "(dp1
S'com.fontlab.hintData'
p2
(dp3
S'vhints'
p4
((dp5
S'position'
p6
I329
sS'width'
p7
I132
stp8
sS'hhints'
p9
((dp10
g6
I-11
sg7
I100
s(dp11
g6
I491
sg7
I17
stp12
ss."
HStem: -10 100<277.309 387.633> 493 17<254.592 322.581>
VStem: 352 132<270.951 408.633>
LayerCount: 2
Fore
SplineSet
352 368 m 5
 336 300 372 254 416 254 c 4
 446 254 484 268 484 330 c 4
 484 407 417 510 295 510 c 4
 148 510 34 397 33 249 c 5
 33 100 144 -10 292 -10 c 4
 463 -10 509 162 509 162 c 5
 499 163 l 5
 455 93 396 90 359 90 c 4
 135 90 111 493 293 493 c 5
 327 494 373 465 352 368 c 5
EndSplineSet
Validated: 41
EndChar

StartChar: p
Encoding: 112 112 10
Width: 599
VWidth: 0
GlyphClass: 2
Flags: W
PickledData: "(dp1
S'com.fontlab.hintData'
p2
(dp3
S'vhints'
p4
((dp5
S'position'
p6
I97
sS'width'
p7
I134
s(dp8
g6
I202
sg7
I29
s(dp9
g6
I418
sg7
I152
stp10
sS'hhints'
p11
((dp12
g6
I-112
sg7
I8
s(dp13
g6
I-11
sg7
I19
s(dp14
g6
I434
sg7
I6
s(dp15
g6
I437
sg7
I63
stp16
ss."
HStem: -160.666 8<36 48.3552 279.449 291> -11 19<278.254 348.085> 433 6<9 17.9666> 447 63<250 450> 480 20G<191.5 231>
VStem: 96 135<-137.958 391.661> 202 29<42 415> 418 152<154.711 353.119>
LayerCount: 2
Fore
SplineSet
9 439 m 1xed
 106 454 159 461 224 500 c 1
 231 499 l 1xeb
 231 -101.666 l 1
 230 -127.666 255 -142.666 276 -148.666 c 2
 291 -152.666 l 1
 291 -160.666 l 1
 209 -150.335 124 -150.33 36 -160.666 c 1
 36 -158.666 36 -155.666 35 -152.666 c 1
 50 -148.666 l 2
 68 -144.666 97 -127.666 96 -106.666 c 1
 96 320 l 2
 96 383 60 420 9 433 c 1
 9 439 l 1xed
386 510 m 0xf3
 514 510 570 397 570 267 c 0
 570 120 467 -11 321 -11 c 0
 237 -11 200 42 202 130 c 1
 203 249 l 1
 201 415 266 510 386 510 c 0xf3
231 243 m 0xf5
 231 130 213 8 319 8 c 0
 396 8 418 159 418 224 c 0
 418 407 324 447 292 447 c 0
 208 447 231 251 231 243 c 0xf5
EndSplineSet
EndChar

StartChar: b
Encoding: 98 98 11
Width: 617
VWidth: 0
GlyphClass: 2
Flags: HW
PickledData: "(dp1
S'com.fontlab.hintData'
p2
(dp3
S'vhints'
p4
((dp5
S'position'
p6
I95
sS'width'
p7
I7
s(dp8
g6
I203
sg7
I30
s(dp9
g6
I444
sg7
I145
stp10
sS'hhints'
p11
((dp12
g6
I-4
sg7
I24
s(dp13
g6
I460
sg7
I51
stp14
ss."
HStem: -11 23<270.391 376.972> 460 51<285.207 368.097> 733 6<10 18.7698> 781 20G<190.803 231>
VStem: 95 7<0 3.65702> 202 30<52 429> 443 145<154.332 358.528>
LayerCount: 2
Fore
SplineSet
9 739 m 5
 103.842 754.807 157.605 759.898 224 801 c 1
 231 800 l 1
 232 101 l 1
 227 52 262 13 336 -11 c 1
 223 -11 210.667 52.9971 161 53 c 0
 127.333 53 102 -2.33301 102 -4 c 1
 95 0 l 1
 96 620 l 6
 96 682.312 60.9824 721.448 9 733 c 5
 9 739 l 5
166 107 m 0
392 511 m 0
 520 511 588 401 588 271 c 0
 588 119 488 -11 336 -11 c 0
 253 -11 201 47 202 135 c 2
 203 261 l 1
 203 429 240 511 392 511 c 0
232 255 m 0
 232 141 221 12 334 12 c 0
 407 12 443 89 443 230 c 0
 443 328 405 458 311 460 c 0
 222 461 232 343 232 255 c 0
EndSplineSet
EndChar

StartChar: g
Encoding: 103 103 12
Width: 516
VWidth: 0
GlyphClass: 2
Flags: W
PickledData: "(dp1
S'com.fontlab.hintData'
p2
(dp3
S'vhints'
p4
((dp5
S'position'
p6
I10
sS'width'
p7
I60
s(dp8
g6
I29
sg7
I152
s(dp9
g6
I300
sg7
I152
stp10
sS'hhints'
p11
((dp12
g6
I-112
sg7
I17
s(dp13
g6
I0
sg7
I142
s(dp14
g6
I189
sg7
I14
s(dp15
g6
I500
sg7
I7
s(dp16
g6
I523
sg7
I139
stp17
ss."
HStem: -163 19<162.022 353.983> -25 142<139.34 373.643> 192 14<232.314 275.642> 500 10<245.476 264> 523 139<325.681 437.64>
VStem: 24 60<-112.144 -36.3509> 43 152<275.953 417.609> 314 152<274.972 417.792>
LayerCount: 2
Fore
SplineSet
177 207 m 1xfd
 56 155 38 95 39 61 c 5
 39 -11 127 -25 251 -25 c 4
 391 -25 411 -72 410 -93 c 5
 410 -117 377 -144 251 -144 c 4
 193 -144 84 -131 84 -79 c 4
 84 -40 119 -22 136 1 c 5
 108 10 l 5
 78 -10 24 -40 24 -80 c 4
 25 -151 189 -163 251 -163 c 4
 466 -163 506 -76 506 0 c 4
 506 89 437 117 338 117 c 6
 157 117 l 6
 90 117 205 200 205 200 c 1
 177 207 l 1xfd
245 500 m 1
 264 500 l 1
 264 500 275 574 319 549 c 1
 344 533 353 523 394 523 c 0
 429 523 456 557 456 595 c 0
 456 642 420 662 389 662 c 0
 275 662 245 500 245 500 c 1
254 206 m 0
 210 206 195 270 195 346 c 1xfb
 194 417 202 494 254 494 c 0
 306 494 314 417 314 346 c 0
 314 270 298 206 254 206 c 0
254 510 m 0
 164 510 43 456 43 345 c 0
 43 238 164 192 254 192 c 0
 343 192 466 238 466 345 c 0
 466 456 343 510 254 510 c 0
EndSplineSet
Validated: 37
EndChar

StartChar: t
Encoding: 116 116 13
Width: 371
VWidth: 0
GlyphClass: 2
Flags: W
PickledData: "(dp1
S'com.fontlab.hintData'
p2
(dp3
S'vhints'
p4
((dp5
S'position'
p6
I66
sS'width'
p7
I133
stp8
sS'hhints'
p9
((dp10
g6
I-4
sg7
I40
s(dp11
g6
I462
sg7
I7
stp12
ss."
HStem: -10 40<153 305.426> 462 7<79 212>
VStem: 79 134<55.2418 469>
LayerCount: 2
Fore
SplineSet
79 139 m 6
 79 469 l 5
 212 469 l 5
 213 144 l 5
 216 57 244 30 282 30 c 4
 324 30 354 61 353 62 c 6
 361 56 l 5
 361 56 318 -10 220 -10 c 4
 86 -10 79 106 79 139 c 6
205 668 m 5
 215 668 l 5
 215 668 216 554 216 508 c 5
 327 508 l 5
 314 462 l 5
 24 462 l 5
 24 471 l 5
 24 471 125 544 205 668 c 5
EndSplineSet
Validated: 37
EndChar

StartChar: m
Encoding: 109 109 14
Width: 928
VWidth: 0
GlyphClass: 2
Flags: W
PickledData: "(dp1
S'com.fontlab.hintData'
p2
(dp3
S'vhints'
p4
((dp5
S'position'
p6
I97
sS'width'
p7
I134
s(dp8
g6
I213
sg7
I18
s(dp9
g6
I407
sg7
I134
s(dp10
g6
I524
sg7
I17
s(dp11
g6
I718
sg7
I134
stp12
sS'hhints'
p13
((dp14
g6
I0
sg7
I8
s(dp15
g6
I433
sg7
I6
s(dp16
g6
I480
sg7
I20
stp17
ss."
HStem: 0 8<41 53.3425 282.462 294 349 361.355 591.583 603 660 672.349 901.589 913> 433 6<13 21.9637> 480 20G<194.5 234>
VStem: 100 134<22.2129 391.661> 215 19<372 408> 409 135<22.1807 419.89> 526 17<372 374.834> 720 134<22.1807 419.89>
LayerCount: 2
Fore
SplineSet
854 363 m 2xe3
 854 59 l 5
 853 46 858 35 869 27 c 4
 878 20 888 15 899 12 c 6
 914 8 l 5
 913 5 913 2 913 0 c 5
 832 10 748 10 660 0 c 1
 660 8 l 1
 675 12 l 2
 685 14 695 19 705 27 c 0
 715 35 720 44 720 54 c 2
 720 314 l 2
 720 573 526 372 526 372 c 1
 526 408 l 1
 768 595 854 490 854 363 c 2xe3
543 363 m 2
 544 59 l 1
 543 46 548 35 559 27 c 0
 568 20 578 15 589 12 c 2
 604 8 l 1
 603 5 603 2 603 0 c 1
 522 10 437 10 349 0 c 1
 349 8 l 1
 364 12 l 2
 374 14 384 19 394 27 c 0
 404 35 409 44 409 54 c 2
 409 314 l 2
 409 573 215 372 215 372 c 1
 215 408 l 1xed
 457 595 543 490 543 363 c 2
13 439 m 1
 110 454 162 460 227 500 c 1
 234 499 l 1xe9
 234 59 l 1
 233 33 258 17 279 12 c 2
 294 8 l 1
 294 0 l 1
 212 10 129 10 41 0 c 1
 41 2 41 5 40 8 c 1
 55 12 l 2
 73 16 101 33 100 54 c 1
 100 320 l 2xf1
 100 383 64 420 13 433 c 1
 13 439 l 1
EndSplineSet
EndChar

StartChar: i
Encoding: 105 105 15
Width: 301
VWidth: 0
GlyphClass: 2
Flags: W
PickledData: "(dp1
S'com.fontlab.hintData'
p2
(dp3
S'vhints'
p4
((dp5
S'position'
p6
I90
sS'width'
p7
I167
s(dp8
g6
I97
sg7
I134
stp9
sS'hhints'
p10
((dp11
g6
I0
sg7
I8
s(dp12
g6
I433
sg7
I6
s(dp13
g6
I480
sg7
I20
s(dp14
g6
I636
sg7
I176
stp15
ss."
HStem: 0 8<37 48.8312 278.945 291> 433 6<10 18.9637> 481 20G<191.5 231> 636 175<117.804 228.626>
VStem: 90 167<665.069 782.081> 96 135<22.2129 393.474>
LayerCount: 2
Fore
SplineSet
90 724 m 4xf8
 90 771 125 811 173 811 c 4
 221 811 257 771 257 724 c 4
 257 676 221 636 173 636 c 4
 125 636 90 676 90 724 c 4xf8
10 439 m 5
 107 454 159 461 224 501 c 5
 231 500 l 5
 231 59 l 5
 230 33 255 17 276 12 c 6
 291 8 l 5
 291 0 l 5
 205.195 10.7272 121.135 10.7226 37 0 c 5
 37 2 37 5 36 8 c 5
 51 12 l 6
 69 16 97 33 96 54 c 5xf4
 97 320 l 6
 97 383 61 420 10 433 c 5
 10 439 l 5
EndSplineSet
Validated: 33
EndChar

StartChar: h
Encoding: 104 104 16
Width: 614
VWidth: 0
GlyphClass: 2
Flags: W
PickledData: "(dp1
S'com.fontlab.hintData'
p2
(dp3
S'vhints'
p4
((dp5
S'position'
p6
I65
sS'width'
p7
I134
s(dp8
g6
I180
sg7
I19
s(dp9
g6
I374
sg7
I134
stp10
sS'hhints'
p11
((dp12
g6
I0
sg7
I8
s(dp13
g6
I780
sg7
I20
stp14
ss."
HStem: 0 8<37 51.8263 277.328 290 347 362 586 601> 733.011 6<10 18.9637> 780.011 20G<191.5 231>
VStem: 97 134<22.1807 691.672> 213 18<373 409> 407 134<22.6934 420.89>
LayerCount: 2
Fore
SplineSet
231 799.011 m 1xec
 231 59 l 2
 231.018 46 235 35 246 27 c 0
 255 20 265 15 276 12 c 2
 291 8 l 1
 290 5 290 2 290 0 c 1
 199.577 10.7168 115.755 10.7031 37 0 c 1
 37 8 l 1
 52 12 l 2
 62 14 72 19 82 27 c 0
 92 35 97 44 97 54 c 2
 97 620.011 l 2xf4
 97 683.011 61 720.011 10 733.011 c 1
 10 739.011 l 1
 107 754.011 159 760.011 224 800.011 c 1
 231 799.011 l 1xec
541 364 m 2
 541 59 l 2
 541 46 545 35 556 27 c 0
 566 20 576 15 586 12 c 2
 601 8 l 1
 601 0 l 1
 516.854 -0.277344 431.912 0.293945 347 0 c 1
 347 8 l 1
 362 12 l 2
 372 14 382 19 392 27 c 0
 402 35 407 44 407 54 c 2
 407 315 l 1
 406 574 213 373 213 373 c 1
 213 409 l 1xec
 455 596 541 491 541 364 c 2
EndSplineSet
Validated: 37
EndChar

StartChar: l
Encoding: 108 108 17
Width: 301
VWidth: 0
GlyphClass: 2
Flags: HMW
PickledData: "(dp1
S'com.fontlab.hintData'
p2
(dp3
S'vhints'
p4
((dp5
S'position'
p6
I97
sS'width'
p7
I134
stp8
sS'hhints'
p9
((dp10
g6
I0
sg7
I8
s(dp11
g6
I780
sg7
I20
stp12
ss."
VStem: 96 135<46 159 620 693.201>
LayerCount: 2
Fore
SplineSet
231 59 m 6
 231 46 235 35 246 27 c 4
 255 20 265 15 276 12 c 6
 291 8 l 5
 291 0 l 5
 208.55 10.7188 124.56 10.7031 37 0 c 5
 37 2 37 5 36 8 c 5
 51 12 l 6
 62 14 72 19 81 27 c 5
 92 35 96 44 96 54 c 6
 97 620 l 6
 97 651 89 676 73 695 c 4
 57 714 36 726 10 733 c 5
 10 739 l 5
 64 747 106 756 137 764 c 4
 168 771 197 783 224 799 c 5
 231 799 l 5
 231 59 l 6
EndSplineSet
Validated: 33
EndChar

StartChar: q
Encoding: 113 113 18
Width: 591
VWidth: 0
GlyphClass: 2
Flags: W
PickledData: "(dp1
S'com.fontlab.hintData'
p2
(dp3
S'vhints'
p4
((dp5
S'position'
p6
I10
sS'width'
p7
I145
s(dp8
g6
I367
sg7
I28
s(dp9
g6
I497
sg7
I7
stp10
sS'hhints'
p11
((dp12
g6
I-112
sg7
I8
s(dp13
g6
I-8
sg7
I51
s(dp14
g6
I483
sg7
I24
stp15
ss."
HStem: -160.666 8<326 338.355 568.583 580> -10 51<248.315 327.131> 483 20G<515 522> 486 24<238.53 346.188>
VStem: 29 144<143.378 344.981> 385 28<73 242 361 443> 515 7<495.343 499>
LayerCount: 2
Fore
SplineSet
281 510 m 1xde
 394 510 406.333 446.003 456 446 c 0
 489.667 446 515 501.333 515 503 c 1xee
 522 499 l 1
 522 -101.666 l 2
 522 -127.666 545 -142.666 566 -148.666 c 2
 581 -152.666 l 1
 581 -155.666 580 -158.666 580 -160.666 c 1
 499 -150.666 414 -150.666 326 -160.666 c 1
 326 -152.666 l 1
 341 -148.666 l 2
 358 -144.666 386 -124.666 385 -104.666 c 1
 385 395 l 1
 389 443 355 486 281 510 c 1xde
451 395 m 0
224 -10 m 0
 97 -10 29 101 29 232 c 0
 29 383 130 510 281 510 c 0xde
 365 510 416 448 414 361 c 1
 413 242 l 1
 413 73 377 -10 224 -10 c 0
385 248 m 0
 385 361 396 486 282 486 c 0
 210 486 173 413 173 273 c 0
 173 174 212 42 305 41 c 1
 395 39 385 159 385 248 c 0
EndSplineSet
Validated: 37
EndChar

StartChar: j
Encoding: 106 106 19
Width: 357
VWidth: 0
GlyphClass: 2
Flags: W
PickledData: "(dp1
S'com.fontlab.hintData'
p2
(dp3
S'vhints'
p4
((dp5
S'position'
p6
I10
sS'width'
p7
I121
s(dp8
g6
I131
sg7
I167
s(dp9
g6
I138
sg7
I134
stp10
sS'hhints'
p11
((dp12
g6
I-116
sg7
I170
s(dp13
g6
I433
sg7
I6
s(dp14
g6
I636
sg7
I176
stp15
ss."
HStem: -160.667 32.334<126.449 146> 433 6<50 59.0545> 636 175<158.234 268.626>
VStem: 10 121.337<-117.509 -3.46069> 131 166<665.069 782.081> 138 133<15.1422 89.333 320 389.811>
LayerCount: 2
Fore
SplineSet
271 75.333 m 2xf4
 271 500 l 1
 264 501 l 1
 200 461 148 454 50 439 c 1
 50 433 l 1
 102 420 136.727 382.999 137 320 c 2
 138 89.333 l 2
 138 33.333 184.341 -10.334 184.341 -76.334 c 1
 178.625 -127.035 143.228 -128.333 146 -128.333 c 1
 111 -128.333 131.337 -75 131.337 -50.667 c 1
 131.337 -4.66699 100 9.33301 67 9.33301 c 1
 31 7.33301 10 -16.667 10 -54.667 c 0
 10 -97.667 48 -160.667 106 -160.667 c 0
 234 -160.667 271 7.33301 271 75.333 c 2xf4
131 724 m 0xe8
 131 771 165 811 213 811 c 0
 261 811 297 771 297 724 c 0
 297 676 261 636 213 636 c 0
 165 636 131 676 131 724 c 0xe8
EndSplineSet
Validated: 41
EndChar

StartChar: u
Encoding: 117 117 20
Width: 621
VWidth: 0
GlyphClass: 2
Flags: W
PickledData: "(dp1
S'com.fontlab.hintData'
p2
(dp3
S'vhints'
p4
((dp5
S'position'
p6
I70
sS'width'
p7
I134
s(dp8
g6
I380
sg7
I134
stp9
sS'hhints'
p10
((dp11
g6
I-1
sg7
I21
s(dp12
g6
I39
sg7
I9
s(dp13
g6
I492
sg7
I8
stp14
ss."
HStem: 36 12<581.452 606.996> 480 20G<213.5 235 523.5 545>
VStem: 101 134<79.5632 391.437> 409 136<65.4666 394.201> 607 1<38.0469 40.8594 43 44.907>
LayerCount: 2
Fore
SplineSet
545 500 m 1
 545 109 l 2
 545 95 552 81 562 70 c 0
 572 60 582 52 592 48 c 0
 602 44 607 43 607 45 c 1
 608 43 608 42 608 41 c 0
 608 40 608 39 607 38 c 0
 607 37 606 36 606 36 c 1
 585 38 552 34 507 24 c 0
 463 14 432 4 416 -4 c 1
 409 0 l 1
 410 321 l 2
 410.07 352 402 377 386 396 c 0
 370 415 349 427 323 434 c 1
 323 440 l 1
 377 448 419 457 450 465 c 0
 481 472 510 484 537 500 c 1
 545 500 l 1
235 500 m 1
 235 185.679 l 2
 235 -72.3223 429 127 429 127 c 1
 429 91 l 1
 187 -95 101.691 8.00098 101 136 c 2
 100 321 l 2
 99.8984 352 92 377 76 396 c 0
 60 415 39 427 13 434 c 1
 13 440 l 1
 67 448 109 457 140 465 c 0
 171 472 200 484 227 500 c 1
 235 500 l 1
EndSplineSet
Validated: 37
EndChar

StartChar: v
Encoding: 118 118 21
Width: 628
VWidth: 0
GlyphClass: 2
Flags: W
PickledData: "(dp1
S'com.fontlab.hintData'
p2
(dp3
S'hhints'
p4
((dp5
S'position'
p6
I492
sS'width'
p7
I8
stp8
ss."
HStem: 487 13<237.019 249> 492 8<363 378.925 594.871 617>
LayerCount: 2
Fore
SplineSet
269.872 -10.001 m 17x80
 433 319 l 1
 433 319 518 491 618 492 c 1
 618 492 617 497 617 500 c 1
 536 489 451 489 363 500 c 1
 363 492 l 1x40
 363 492 484.119 478.9 413 327 c 2
 340.376 171.885 l 1
 237 442 l 2
 227.045 468.013 228 482 249 487 c 1x80
 264 492 l 1
 264 500 l 1
 182 489 98 489 10 500 c 1
 10 492 l 1x40
 25 487 l 1
 42 483 61.1201 467.051 70 446 c 2
 262.37 -10.001 l 9
 269.872 -10.001 l 17x80
269.857 -10.001 m 1
 262.475 -10.001 l 1
269.872 -10.001 m 1
 269.857 -10.001 l 1
 348.818 149.824 l 1
 340.376 171.885 l 1
 259.091 -1.72754 l 1
 262.475 -10.001 l 1
 262.37 -10.001 l 1
EndSplineSet
Validated: 43
EndChar

StartChar: w
Encoding: 119 119 22
Width: 987
VWidth: 0
GlyphClass: 2
Flags: W
PickledData: "(dp1
S'com.fontlab.hintData'
p2
(dp3
S'hhints'
p4
((dp5
S'position'
p6
I492
sS'width'
p7
I8
stp8
ss."
HStem: 492 8<722.5 738.965 949.828 976.5>
LayerCount: 2
Fore
SplineSet
269.872 -10.001 m 9
 262.37 -10.001 l 17
 70 446 l 2
 61.1201 467.051 42 483 25 487 c 1
 10 492 l 1
 10 500 l 1
 98 489 182 489 264 500 c 1
 264 492 l 1
 249 487 l 1
 228 482 227.045 468.013 237 442 c 2
 340.376 171.885 l 1
 413 327 l 1
 484.119 478.889 363 492.307 363 492 c 1
 363 500 l 1
 451 489 536 489 617 500 c 1
 617 497 618 492 618 492 c 1
 518 491 433 319 433 319 c 1
 269.872 -10.001 l 9
269.857 -10.001 m 1
 262.475 -10.001 l 1
363.006 491.999 m 1
 363 500 l 1
 451 489 536 489 617 500 c 1
 617 497 617 494 618 492 c 1
 603 487 l 1
 582 482 580.782 468.317 591 442 c 2
 699.876 171.885 l 1
 772.5 327 l 2
 843.619 478.9 722.5 492 722.5 492 c 1
 722.5 500 l 1
 810.5 489 895.5 489 976.5 500 c 1
 976.5 497 977.5 492 977.5 492 c 1
 877.5 491 792.5 319 792.5 319 c 1
 629.372 -10.001 l 9
 621.416 -10.1826 l 17
 557.069 141.988 493.405 292.125 428.546 445.818 c 1
 409.825 488.243 362.455 492.356 363.006 491.999 c 1
EndSplineSet
Validated: 43
EndChar

StartChar: x
Encoding: 120 120 23
Width: 609
VWidth: 0
GlyphClass: 2
Flags: W
PickledData: "(dp1
S'com.fontlab.hintData'
p2
(dp3
S'hhints'
p4
((dp5
S'position'
p6
I0
sS'width'
p7
I8
s(dp8
g6
I495
sg7
I8
stp9
ss."
HStem: 0 8<251.645 264 345 356.417 586.645 599> 491 13<248.019 260> 495 8<334 342.241 565.114 588>
LayerCount: 2
Fore
SplineSet
245 159 m 5xa0
 152.5 21.833 264 8 264 8 c 1
 264 0 l 1
 176 10 91 10 10 0 c 1
 11 2 10 8 10 8 c 1
 109 9 219 159 219 159 c 1
 363 343 l 1
 448 466 334 495 334 495 c 1
 334 503 l 1
 422 492 507 492 588 503 c 1
 588 500 589 495 589 495 c 1
 496 495 388 343 388 343 c 1
 245 159 l 5xa0
535 59 m 1
 535 59 562 18 584 12 c 2
 599 8 l 1
 599 0 l 1
 511 10 426 10 345 0 c 1
 345 8 l 1
 360 12 l 2
 380 17 387.266 37.4355 372 58 c 2
 81 450 l 2
 66 470 53 487 36 491 c 1
 21 496 l 1
 21 504 l 1
 109 493 193 493 275 504 c 1
 275 496 l 1
 260 491 l 1xc0
 239 486 230 471 248 446 c 2
 535 59 l 1
EndSplineSet
Validated: 37
EndChar

StartChar: y
Encoding: 121 121 24
Width: 628
VWidth: 0
GlyphClass: 2
Flags: W
PickledData: "(dp1
S'com.fontlab.hintData'
p2
(dp3
S'vhints'
p4
((dp5
S'position'
p6
I49
sS'width'
p7
I122
stp8
sS'hhints'
p9
((dp10
g6
I-138
sg7
I147
s(dp11
g6
I0
sg7
I21
s(dp12
g6
I492
sg7
I8
stp13
ss."
HStem: -138 81.5908<117.5 228.204> 487 13<237.019 249> 492 8<363 378.925 594.871 617>
LayerCount: 2
Fore
SplineSet
269 34.5 m 17x80
 269 34.5 244.955 -56.4092 211.454 -56.4092 c 1
 199.455 -56.4092 183.955 -51.25 178 -30 c 1
 178 -30 170.955 9 121 9 c 0
 93 9 56 -8 56 -55 c 0
 56 -112 99 -138 136 -138 c 1
 221.955 -138 269.872 -9.12144 269.872 -10.001 c 1
 269.455 -7.75 277.503 5.34961 288.261 27.083 c 1
 269 34.5 l 17x80
269.872 -10.001 m 17
 433 319 l 1
 433 319 518 491 618 492 c 1
 618 492 617 497 617 500 c 1
 536 489 451 489 363 500 c 1
 363 492 l 1xa0
 363 492 484.119 478.9 413 327 c 2
 340.376 171.885 l 1
 237 442 l 2
 227.045 468.013 228 482 249 487 c 1xc0
 264 492 l 1
 264 500 l 1
 182 489 98 489 10 500 c 1
 10 492 l 1xa0
 25 487 l 1xc0
 42 483 61.1201 467.051 70 446 c 2
 262.37 -10.001 l 9
 269.872 -10.001 l 17
269.872 -10.001 m 1
 269.857 -10.001 l 1
262.37 -10.001 m 1
EndSplineSet
Validated: 43
EndChar

StartChar: T
Encoding: 84 84 25
Width: 794
VWidth: 0
GlyphClass: 2
Flags: W
PickledData: "(dp1
S'com.fontlab.hintData'
p2
(dp3
S'vhints'
p4
((dp5
S'position'
p6
I27
sS'width'
p7
I8
s(dp8
g6
I326
sg7
I174
s(dp9
g6
I793
sg7
I8
stp10
sS'hhints'
p11
((dp12
g6
I0
sg7
I8
s(dp13
g6
I779
sg7
I19
stp14
ss."
HStem: 0 8<216 229.723 561.545 575> 783 15<273.652 518.693> 794 20G<58.259 398 398 735.741>
VStem: 10 8<536 546.613> 309 174<40.4903 798> 776 8<536 546.613>
LayerCount: 2
Fore
SplineSet
216 0 m 5xdc
 216 8 l 5
 216 8 309 22 309 85 c 6
 309 798 l 1
 483 798 l 1
 483 85 l 6
 483 21 575 8 575 8 c 5
 575 0 l 5
 483 21 310 19 216 0 c 5xdc
453 783 m 2
 341 783 l 2xdc
 84 783 18 536 18 536 c 1
 10 536 l 1
 62 814 l 1
 62 814 102 800 398 800 c 0
 694 800 732 814 732 814 c 1xbc
 784 536 l 1
 776 536 l 1
 776 536 710 783 453 783 c 2
EndSplineSet
Validated: 37
EndChar

StartChar: L
Encoding: 76 76 26
Width: 717
VWidth: 0
GlyphClass: 2
Flags: W
PickledData: "(dp1
S'com.fontlab.hintData'
p2
(dp3
S'vhints'
p4
((dp5
S'position'
p6
I132
sS'width'
p7
I174
stp8
sS'hhints'
p9
((dp10
g6
I0
sg7
I8
s(dp11
g6
I0
sg7
I21
s(dp12
g6
I792
sg7
I8
stp13
ss."
HStem: 0 16.9854<323 453.718> 0 8<27 43.1994> 792 8<26 42.3581 371.228 386>
VStem: 120 174.016<39.2768 760.775>
LayerCount: 2
Fore
SplineSet
294.016 85 m 2x70
 294.018 20.7275 355 16.9854 380.5 16.9854 c 1
 380.5 0 l 1xb0
 262.771 0 147.372 0 27 0 c 1
 27 8 l 1
 27 8 120 22 120 85 c 2
 120 715 l 6
 119.9 778 26 792 26 792 c 1
 26 800 l 1
 112.957 783.225 284.089 780.815 386 800 c 1
 386 792 l 1
 386 792 293.898 778 294 715 c 2
 294.016 85 l 2x70
380.5 16.9854 m 1
 663.5 16.9854 698 285 698 285 c 9
 707.341 284.993 l 25
 666.002 0 l 17x70
 552.835 0 493.667 0 380.5 0 c 1
 380.5 0 330.838 3.71289 297.125 7.35938 c 0
 292.327 27.8154 l 1
 292.327 27.8154 323 16.9854 380.5 16.9854 c 1
EndSplineSet
EndChar

StartChar: H
Encoding: 72 72 27
Width: 891
VWidth: 0
GlyphClass: 2
Flags: W
PickledData: "(dp1
S'com.fontlab.hintData'
p2
(dp3
S'vhints'
p4
((dp5
S'position'
p6
I118
sS'width'
p7
I174
s(dp8
g6
I204
sg7
I88
s(dp9
g6
I596
sg7
I174
stp10
sS'hhints'
p11
((dp12
g6
I0
sg7
I8
s(dp13
g6
I403
sg7
I31
s(dp14
g6
I792
sg7
I8
stp15
ss."
HStem: 0 8<26 42.1994 371.336 386 505 521.199 850.336 865> 403 31<206 712> 792 8<26 42.1994 370.882 386 505 521.199 849.882 865>
VStem: 119 174<40.4903 403 434 760.775> 206 87<403 434> 598 174<40.4903 403 434 760.775>
LayerCount: 2
Fore
SplineSet
598 85 m 2xe4
 598 715 l 2
 598 778 505 792 505 792 c 1
 505 800 l 1
 589.917 782.842 760.479 781.079 865 800 c 1
 865 792 l 1
 865 792 772 778 772 715 c 2
 772 85 l 2
 772 21 865 8 865 8 c 1
 865 0 l 1
 763.868 20.9863 593.205 18.9893 505 0 c 1
 505 8 l 1
 505 8 598 22 598 85 c 2xe4
206 434 m 1xec
 712 434 l 1
 712 403 l 1
 206 403 l 1
 206 434 l 1xec
119 85 m 6xf4
 119 715 l 6
 119 778 26 792 26 792 c 5
 26 800 l 5
 110.917 782.841 281.478 781.08 386 800 c 5
 386 792 l 5
 386 792 293 778 293 715 c 6
 293 85 l 6
 293 21 386 8 386 8 c 5
 386 0 l 5
 284.868 20.9863 114.205 18.9893 26 0 c 5
 26 8 l 5
 26 8 119 22 119 85 c 6xf4
EndSplineSet
Validated: 37
EndChar

StartChar: k
Encoding: 107 107 28
Width: 666
VWidth: 0
Flags: W
HStem: 0 8<57 71.8263 297.328 310 402.5 413.872 644.101 656.5> 495 8<597.898 616.5> 733.011 6<30 38.9637> 780.011 20G<211.5 251>
VStem: 117 134<22.1807 691.672>
LayerCount: 2
Fore
SplineSet
251 799.011 m 1
 251 59 l 6
 251.018 46 255 35 266 27 c 4
 275 20 285 15 296 12 c 6
 311 8 l 5
 310 5 310 2 310 0 c 5
 219.577 10.7168 135.755 10.7031 57 0 c 1
 57 8 l 1
 72 12 l 2
 82 14 92 19 102 27 c 0
 112 35 117 44 117 54 c 2
 117 620.011 l 2
 117 683.011 81 720.011 30 733.011 c 1
 30 739.011 l 1
 127 754.011 179 760.011 244 800.011 c 1
 251 799.011 l 1
282.145 256.5 m 9
 382.256 342.5 l 17
 592.5 59 l 1
 592.5 59 619.5 18 641.5 12 c 2
 656.5 8 l 1
 656.5 0 l 1
 568.17 11.4541 483.161 11.501 402.5 0 c 1
 402.5 8 l 1
 417.5 12 l 2
 437.5 17 444.883 37.2783 429.5 58 c 2
 282.145 256.5 l 9
226.5 199 m 9
 200.5 199 l 17
 259.088 246.344 342.5 311 374.5 343 c 1
 481.5 450 362.5 495 362.5 495 c 1
 362.5 503 l 1
 450.5 492 535.5 492 616.5 503 c 1
 616.5 500 617.5 495 617.5 495 c 1
 572.5 495 465.5 412 388.5 335 c 1
 226.5 199 l 9
EndSplineSet
Validated: 37
EndChar

StartChar: z
Encoding: 122 122 29
Width: 614
VWidth: 0
Flags: W
HStem: 0 21<180 202 218.833 306.242> 0 13<31 40.1568> 481.059 18.9521<299.449 429.924> 493 7.33984<559 573.673>
VStem: 81.7539 7.2207<261.751 271.174> 535.833 9<250.935 264>
LayerCount: 2
Fore
SplineSet
180 21 m 17x8c
 218.833 21 l 2x8c
 475.835 21 535.833 264 535.833 264 c 1
 544.833 264 l 1
 499 0 l 1
 499 0 475.833 0 179.833 0 c 9x4c
 180 21 l 17x8c
430.075 481.059 m 17x2c
 378.481 481.059 l 2
 146.539 481.059 88.9746 261.751 88.9746 261.751 c 1
 81.7539 261.751 l 1
 125.03 500.011 l 1
 125.03 500.011 162.784 500.011 429.924 500.011 c 9
 430.075 481.059 l 17x2c
202 0 m 1x9c
 121.291 0.352539 105.375 -0.345703 16 0 c 1
 16 8 l 1
 31 13 l 1x4c
 48 17 102.051 97.5947 116.5 118 c 2
 386.999 500 l 1
 573.673 500.34 l 1
 574 493 l 1
 559 489 l 2
 537 483 510 442 510 442 c 1
 202 0 l 1x9c
EndSplineSet
Validated: 37
EndChar

StartChar: B
Encoding: 66 66 30
Width: 757
VWidth: 0
Flags: W
HStem: 0 16.9854<325.75 457.666> 0 8<26 42.176> 412.537 11.498<280.162 474.496> 783.889 16.9863<294.34 427.301> 792.5 8<27.5 43.3917>
VStem: 119 174<39.2837 412.534 424.499 762.925> 293.037 0.962891<775.782 793> 518.162 176.635<514.113 694.812> 548.398 183<119.004 302.947>
LayerCount: 2
Fore
SplineSet
378.497 412.537 m 9xa680
 280 412.535 l 1
 280.003 412.543 280.162 424.499 280.162 424.499 c 9
 378.5 424.035 l 17
 378.5 424.033 731.398 452 731.398 217.035 c 1
 731.398 -5 501.5 0 378.5 0 c 1
 339.167 1.16602 328.838 3.71289 295.125 7.35938 c 0
 290.327 26.8154 l 1
 290.327 26.8154 321 16.9854 378.5 16.9854 c 1
 496 16.9854 548.398 45 548.398 213.035 c 1
 547.622 367.705 480.75 412.537 378.497 412.537 c 9xa680
378.5 424.035 m 17
 474.496 424.043 518.162 501.999 518.162 613.499 c 1
 516.164 707.818 483.881 783.889 376.381 783.889 c 1
 315.256 783.889 293.005 775.782 293.005 775.782 c 1
 293.037 793 l 0
 326.75 796.646 337.047 799.709 376.381 800.875 c 1
 499.381 800.875 695.104 780.731 694.797 613 c 1x37
 694.158 412.892 524.5 412.534 378.498 412.534 c 9
 279.999 412.534 l 25
 280.062 417.2 280.324 424.963 280.162 424.499 c 0
 280 424.035 340.148 424.216 378.5 424.035 c 17
294 793.112 m 1
 293 85 l 1
 292.717 20.7432 353 16.9854 378.5 16.9854 c 1
 378.5 0 l 1xae
 325.75 0 269 14.25 211.75 15.0098 c 1
 143.355 15.0293 74.2637 9.75586 26 0 c 1
 26 8 l 1
 26 8 118.85 22 119 85 c 2
 120.5 715.5 l 2
 120.649 778.5 27.5 792.5 27.5 792.5 c 1
 27.5 800.5 l 1x6e
 74.1055 791.08 138.041 786.535 202 786.561 c 1
 236.845 786.802 266.541 789.931 294 793.112 c 1
EndSplineSet
Validated: 37
EndChar

StartChar: P
Encoding: 80 80 31
Width: 713
VWidth: 0
Flags: W
HStem: 0 8<25.5459 39.0723 371.794 385.546> 348.269 11.5029<278.428 409.123> 783.014 16.9863<293.114 420.461> 791.5 8<25.7031 41.5949>
VStem: 118.546 174<40.489 85 714.5 760.274> 292.014 0.584961<774.403 792.288> 516.364 176.636<490.276 672.751>
LayerCount: 2
Fore
SplineSet
376.702 359.771 m 9xe6
 376.702 359.771 278.202 359.771 278.364 360.233 c 1
 278.201 348.269 l 9
 376.7 348.269 l 17
 398.202 348.269 693 348.021 693 584.817 c 1
 693.308 752.55 499.732 800 376.732 800 c 1
 337.399 798.834 325.727 795.935 292.014 792.288 c 0
 291.928 774.403 l 5
 291.928 774.403 319.232 783.014 376.732 783.014 c 5
 484.232 783.014 514.366 679.636 516.364 585.317 c 1
 516.364 473.817 470.202 359.771 376.702 359.771 c 9xe6
292.599 792.35 m 1
 264.82 789.013 234.262 785.797 200.203 785.561 c 1
 136.244 785.535 72.3086 790.08 25.7031 799.5 c 1
 25.7031 791.5 l 1
 25.7031 791.5 119.318 777.497 118.703 714.5 c 2
 118.546 85 l 2
 118.53 22 25.5459 8 25.5459 8 c 1
 25.5459 0 l 1
 118.065 18.9883 291.343 20.9863 385.546 0 c 1
 385.546 8 l 1
 385.546 8 292.546 21 292.546 84.9961 c 1xda
 292.599 792.35 l 1
EndSplineSet
Validated: 37
EndChar

StartChar: C
Encoding: 67 67 32
Width: 776
VWidth: 0
Flags: W
HStem: -15 17<359.925 480.026> 798 17<368.537 477.202>
VStem: 28 189<271.147 537.068> 702.5 8.5<-4 16.0269 278.178 293.833 489 519.322 778.496 803>
LayerCount: 2
Fore
SplineSet
420 815 m 5
 344 815 29.0498 717.689 28 406 c 1
 29.1592 145.176 245 -15 420 -15 c 1
 547 -15 618 64 665 64 c 1
 693.5 64 702.572 -4.01074 702.572 -4.01074 c 9
 711 -4 l 25
 711.166 293.833 l 25
 702.565 293.87 l 17
 702.565 293.87 650 2 419 2 c 1
 212 2 217 233 217 411 c 1
 217 548 217 798 420 798 c 1
 605 798 702.5 566 702.5 489 c 9
 711 489 l 25
 711 803 l 25
 702.625 803 l 17
 702.625 803 702.375 746 660 746 c 1
 625.875 746 549.5 815 420 815 c 5
EndSplineSet
Validated: 41
EndChar

StartChar: R
Encoding: 82 82 33
Width: 808
VWidth: 0
Flags: W
HStem: 0 8<34 47.7231 380.411 394 783.446 798.491> 347.833 11.9639<321.59 423.049> 783.014 16.9863<301.568 428.718> 791.5 8<34.1572 50.049>
VStem: 127 174<40.489 85 714.5 760.274> 300.468 0.584961<774.403 792.288> 520.818 176.636<498.322 672.751>
LayerCount: 2
Fore
SplineSet
680.491 152.333 m 1xc2
 597.491 332.5 493.491 360.5 421.491 360.5 c 1
 421.491 360.5 321.928 361.379 321.593 359.333 c 9
 223.255 359.797 l 17
 223.255 359.797 223.096 347.841 223.093 347.833 c 1
 321.59 347.835 l 17
 423.049 348.752 409.75 314.448 549.491 45 c 1
 560.991 24.5 554.816 14.1572 546.728 12 c 2
 531.728 8 l 1
 531.728 0 l 1
 621.612 20.0518 719.38 20.1738 798.491 0 c 1
 798.491 8.00195 l 1
 740.158 9 715.491 72 680.491 152.333 c 1xc2
313.491 389 m 1
330.156 359.771 m 9
 330.156 359.771 286.656 359.771 286.818 360.233 c 1
 286.655 348.269 l 9
 330.154 348.269 l 17
 351.656 348.269 697.454 348.021 697.454 584.817 c 1
 697.762 752.55 508.187 800 385.187 800 c 1
 345.854 798.834 334.181 795.935 300.468 792.288 c 0
 300.382 774.403 l 1
 300.382 774.403 327.687 783.014 385.187 783.014 c 1xe6
 492.687 783.014 518.82 679.636 520.818 585.317 c 1
 520.818 473.817 423.656 359.771 330.156 359.771 c 9
301.053 792.35 m 1
 273.274 789.013 242.717 785.797 208.657 785.561 c 1
 144.698 785.535 80.7627 790.08 34.1572 799.5 c 1
 34.1572 791.5 l 1
 34.1572 791.5 127.772 777.497 127.157 714.5 c 2
 127 85 l 2
 126.984 22 34 8 34 8 c 1
 34 0 l 1
 128 19 301 21 394 0 c 1
 394 8 l 1
 394 8 301 21 301 84.9961 c 1xda
 301.053 792.35 l 1
EndSplineSet
Validated: 37
EndChar

StartChar: D
Encoding: 68 68 34
Width: 855
VWidth: 0
Flags: W
HStem: 0 16.9854<325.75 458.101> 0 8<26 42.1916> 783.889 16.986<293.836 440.17> 792.5 8<26.5 42.3917>
VStem: 119 174<39.2837 761.275> 629 198<267.388 553.46>
LayerCount: 2
Fore
SplineSet
827 420 m 1xac
 827 118 634 0 378.5 0 c 1
 339.167 1.16602 328.838 3.71289 295.125 7.35938 c 0
 290.327 26.8154 l 1
 290.327 26.8154 321 16.9854 378.5 16.9854 c 1
 496 16.9854 629 44 629 416 c 1
 629 718 483.881 783.889 376.381 783.889 c 1
 315.256 783.889 293.005 775.782 293.005 775.782 c 1
 293.037 793 l 0
 326.75 796.646 337.047 799.709 376.381 800.875 c 1
 566 800.875 827 718 827 420 c 1xac
293 793.112 m 5
 293 85 l 1
 292.717 20.7432 353 16.9854 378.5 16.9854 c 1
 378.5 0 l 1x9c
 325.75 0 269 14.25 211.75 15.0098 c 1
 143.355 15.0293 74.2637 9.75586 26 0 c 1
 26 8 l 1
 26 8 118.95 22 119 85 c 2
 119.5 715.5 l 2
 119.649 778.5 26.5 792.5 26.5 792.5 c 1
 26.5 800.5 l 1x5c
 73.1055 791.08 137.041 786.535 201 786.561 c 1
 235.845 786.802 265.541 789.931 293 793.112 c 5
EndSplineSet
EndChar

StartChar: E
Encoding: 69 69 35
Width: 790
VWidth: 0
Flags: W
HStem: 0 16.9854<321 465.435> 0 8<26 42.0329> 389.912 16.088<323 379.564> 782.886 16.9893<293.596 441.684> 792.5 8<25.5 41.3917>
VStem: 118 175<39.2837 85 715.5 761.275> 291.037 1.96289<775.782 793> 530 9.33301<202.912 243.405 552.507 593>
LayerCount: 2
Fore
SplineSet
378.5 16.9854 m 5xa1
 321 16.9854 290.327 27.8154 290.327 27.8154 c 5
 295.125 7.35938 l 4
 328.838 3.71289 378.5 0 378.5 0 c 5xa1
 491.667 0 604.835 0 718.002 0 c 13x61
 760.341 282.993 l 29
 751 283 l 21
 751 283 715 16.9854 378.5 16.9854 c 5xa1
26 0 m 5x6d
 146.372 0 260.771 0 378.5 0 c 5
 378.5 16.9854 l 5
 353 16.9854 292.717 20.7432 293 85 c 5xa5
 293 793.112 l 5xa3
 265.541 789.931 234.845 786.802 200 786.561 c 5
 136.041 786.535 72.1055 791.08 25.5 800.5 c 5
 25.5 792.5 l 5
 25.5 792.5 117.75 778.5 117.5 715.5 c 6
 118 85 l 6
 118.05 22 26 8 26 8 c 5
 26 0 l 5x6d
264 406 m 13
 264 389.912 l 21
 264 389.912 303.333 389.912 323 389.912 c 13
 323 389.912 530 389.912 530 202.912 c 5
 539.333 202.911 l 13
 539.333 593.001 l 21
 530 593 l 5
 530 406 323 406 323 406 c 21
 303.333 406 283.666 406 264 406 c 13
374.381 799.875 m 5x33
 335.047 798.709 324.75 796.646 291.037 793 c 4
 291.005 775.782 l 5
 291.005 775.782 313.256 782.886 374.386 782.886 c 4
 588.333 782.886 706.999 568.001 706.999 568.001 c 13
 716.398 568 l 29
 639.167 771.5 l 21
 639.167 771.5 507.5 799.875 374.381 799.875 c 5x33
EndSplineSet
EndChar

StartChar: F
Encoding: 70 70 36
Width: 728
VWidth: 0
Flags: W
HStem: 0 8<26 39.5443 372.202 386> 389.912 16.088<264 379.564> 782.886 16.989<294.34 443.684> 792.5 8<25.5 41.4583>
VStem: 119 174<40.4903 389.912 406 759.569> 264 29<389.912 406> 293.037 0.963013<775.782 793> 530 9.33301<202.912 243.405 552.507 593>
LayerCount: 2
Fore
SplineSet
264 406 m 17xc7
 283.666 406 303.333 406 323 406 c 9
 323 406 530 406 530 593 c 1
 539.333 593.001 l 9
 539.333 202.911 l 17
 530 202.912 l 1
 530 389.912 323 389.912 323 389.912 c 17
 264 389.912 l 9
 264 406 l 17xc7
376.381 799.875 m 1xe3
 509.5 799.875 641.167 771.5 641.167 771.5 c 9
 718.398 568 l 25
 708.999 568.001 l 17
 708.999 568.001 590.333 782.886 376.386 782.886 c 0
 315.256 782.886 293.005 775.782 293.005 775.782 c 1
 293.037 793 l 0
 326.75 796.646 337.047 798.709 376.381 799.875 c 1xe3
119 85 m 2xdb
 118.5 715.5 l 6
 118.649 778.5 25.5 792.5 25.5 792.5 c 5
 25.5 800.5 l 5
 72.1055 791.08 138.041 786.535 202 786.561 c 1
 236.845 786.802 266.541 789.931 294 793.112 c 1
 293 85 l 2
 292.909 21 386 8 386 8 c 1
 386 0 l 1
 291.431 20.8066 118.677 19.1777 26 0 c 1
 26 8 l 1
 26 8 119.05 22 119 85 c 2xdb
EndSplineSet
EndChar

StartChar: N
Encoding: 78 78 37
Width: 925
VWidth: 0
Flags: W
HStem: 0.00585938 8<296.36 310.107> 791.875 7.99902<10.291 34.1643 640.625 653.893 902.161 915.357>
VStem: 163.832 17.8184<96.372 139.839> 768.887 17.816<660.042 703.509>
LayerCount: 2
Fore
SplineSet
35.375 0.00195312 m 1
 34.9648 -10.7148 160.943 34.2549 310.107 0.00585938 c 1
 310.107 8.00586 l 1
 310.107 8.00586 181.65 35.5059 181.65 139.839 c 5
 181.191 714.879 l 9
 163.375 714.878 l 17
 163.832 139.839 l 1
 163.832 35.5059 35.375 8.00586 35.375 8.00586 c 1
 35.375 0.00195312 l 1
640.625 799.874 m 1
 640.625 791.875 l 1
 640.625 791.875 769.082 764.375 769.082 660.042 c 1
 768.887 100.997 l 9
 786.703 100.996 l 17
 786.9 660.042 l 1
 786.9 764.375 915.357 791.875 915.357 791.875 c 1
 915.357 799.875 l 1
 774.328 769.979 640.625 799.874 640.625 799.874 c 1
131.291 734.874 m 1
 778.43 -10 l 1
 786.975 -10 l 25
 786.43 258 l 1
 323.875 800 l 1
 237.961 782.301 140.97 781.315 10 800 c 1
 10.291 790.542 l 1
 81.625 789.829 131.291 734.874 131.291 734.874 c 1
EndSplineSet
EndChar

StartChar: I
Encoding: 73 73 38
Width: 412
VWidth: 0
Flags: W
HStem: 0 8<26 39.6675 372.347 386> 792 8<26 39.7231 372.411 386>
VStem: 119 174<40.4903 760.775>
LayerCount: 2
Fore
SplineSet
119 85 m 6
 119 715 l 6
 119 778 26 792 26 792 c 5
 26 800 l 5
 120 781 293 778 386 800 c 5
 386 792 l 5
 386 792 293 778 293 715 c 6
 293 85 l 6
 293 21 386 8 386 8 c 5
 386 0 l 5
 292.522 20.9863 119.588 18.9883 26 0 c 5
 26 8 l 5
 26 8 119 22 119 85 c 6
EndSplineSet
Validated: 33
EndChar

StartChar: A
Encoding: 65 65 39
Width: 835
VWidth: 0
Flags: HW
HStem: 0 8.25<10.0469 35.5333 303.392 323.545 458.68 476.728> 246 16<234.047 491.625> 798 20G<433.894 448.466>
LayerCount: 2
Fore
SplineSet
491.625 262 m 5
 491.625 246 l 5
 234.047 246 l 5
 234.047 262 l 5
 491.625 262 l 5
385.047 615.498 m 21
 211.047 170.997 l 6
 154.353 26.1641 323.545 7.99902 323.545 7.99902 c 5
 323.545 -0.000976562 l 5
 232.046 9.58496 103.992 11.7979 10 0 c 5
 10.0469 8.25 l 5
 121.88 11 195.047 178.997 195.047 178.997 c 5
 370.045 615.498 l 13
 385.047 615.498 l 21
728.547 90.665 m 6
 752.635 29.833 825.68 8 825.68 8 c 5
 825.68 0 l 5
 732.677 12.5596 552.677 11.5713 458.68 0 c 5
 458.68 8 l 5
 458.68 8 564.916 24.5723 540.545 82.668 c 6
 362.104 536.903 l 5
 344.047 577 328.547 597.991 301.621 597.991 c 5
 298.813 603.294 l 5
 342.795 635.63 350.978 655.332 378.547 698 c 4
 399.547 730.5 433.894 815.608 433.894 815.608 c 5
 440.547 818 l 5
 728.547 90.665 l 6
EndSplineSet
EndChar

StartChar: K
Encoding: 75 75 40
Width: 845
VWidth: 0
Flags: W
HStem: 1 7<32 44.9317 377.336 392 536 547.835 822.495 835> 792 8<32 48.1994 376.882 392>
VStem: 125 174<40.4903 760.775>
LayerCount: 2
Fore
SplineSet
347 404.25 m 9
 468.678 544.32 l 17
 762 63.5 l 1
 762 63.5 794.186 18.8838 820 12 c 2
 835 8 l 1
 835 0 l 1
 748.025 10.6602 617.97 10.6729 536 0 c 1
 536 8 l 1
 551 12 l 2
 571 17 578.067 37.0479 563 58 c 2
 347 404.25 l 9
257.5 298 m 13
 225.5 298 l 21
 284.088 345.344 535 640.325 535 640.325 c 5
 650.675 756 523.354 792.805 523 792.325 c 5
 523 800.325 l 5
 611 781.866 696 781.917 777 800.325 c 5
 777 797.325 778 792.325 778 792.325 c 5
 733 792.325 632 715.325 549 632.325 c 5
 257.5 298 l 13
125 85 m 2
 125 715 l 2
 125 778 32 792 32 792 c 1
 32 800 l 1
 116.917 782.841 287.478 781.08 392 800 c 1
 392 792 l 1
 392 792 299 778 299 715 c 2
 299 85 l 2
 299 21 392 8 392 8 c 1
 392 1 l 1
 290.868 11.5596 120.205 10.8799 32 1 c 1
 32 8 l 1
 32 8 125 22 125 85 c 2
EndSplineSet
Validated: 37
EndChar

StartChar: O
Encoding: 79 79 41
Width: 796
VWidth: 0
Flags: W
HStem: -15 16.9512<361.986 438.889> 798.004 16.9854<355.031 444.691>
VStem: 28 198<242.327 539.624> 570.892 198<239.751 537.008>
LayerCount: 2
Fore
SplineSet
399.595 -15 m 1
 203.432 -15 28 113 28 394 c 1
 28 692 254.272 814.989 399.928 814.989 c 1
 545.582 814.989 768.892 689.14 768.892 391.14 c 1
 768.892 110.14 595.503 -15 399.595 -15 c 1
399.928 798.004 m 1
 293.416 796.09 226 712 226 390 c 1
 226 91 317.932 1.95117 399.468 1.95117 c 1
 481.003 1.95117 570.892 88.1396 570.892 387.14 c 1
 570.892 709.14 506.438 796.09 399.928 798.004 c 1
EndSplineSet
Validated: 1
EndChar

StartChar: Q
Encoding: 81 81 42
Width: 787
VWidth: 0
Flags: W
HStem: -167 76<432.5 686.5> -13.9512 16.9512<357.706 436.401> 798.014 16.9863<352.239 441.763>
VStem: 28.0723 198<242.431 539.625> 64 8<-90.3281 -73.5715> 567.964 198<239.856 537.008> 762 8<-16.2114 -2>
LayerCount: 2
Fore
SplineSet
232 26 m 1xea
 325 26 462 -91 659 -91 c 1
 714 -91 752 -54 762 -2 c 1
 770 -2 l 1
 760 -107 625 -167 512 -167 c 0
 353 -167 260 -25 130 -25 c 0
 99 -25 73 -63.3281 72 -90.3281 c 1
 64 -90.3281 l 1
 64 -16 125 22 232 26 c 1xea
397.127 -13.9512 m 1
 200.964 -13.9512 28.0723 113 28.0723 394 c 1
 28.0723 692 251.345 815 397 815 c 1
 542.655 815 765.964 689.14 765.964 391.14 c 1xf4
 765.964 110.14 593.036 -13.9512 397.127 -13.9512 c 1
397 798.014 m 1
 290.489 796.1 226.072 712 226.072 390 c 1
 226.072 91 315.464 3 397 3 c 1
 478.536 3 567.964 88.1396 567.964 387.14 c 1
 567.964 709.14 503.511 796.1 397 798.014 c 1
EndSplineSet
Validated: 5
EndChar

StartChar: S
Encoding: 83 83 43
Width: 613
VWidth: 0
Flags: W
HStem: -15 18<278.144 366.491> 797.997 17.001<244.284 324.66>
VStem: 50 130<440.7 695.5> 57.0371 14.9629<-1 24.251 291.617 305> 440.992 137.008<133.763 380.916> 504.375 8.375<782.914 804.667> 518.25 12.5<540.667 564.931>
LayerCount: 2
Fore
SplineSet
291.009 797.997 m 5xe8
 391.25 797.997 518.25 586.667 518.25 540.667 c 13
 530.75 540.667 l 29
 512.75 804.667 l 29
 504.375 804.667 l 21
 504.375 804.667 502.75 756.667 471.25 756.667 c 5
 431 756.667 403.5 814.998 295.01 814.998 c 5
 155 815 50 702 50 560 c 4xe6
 50 321.4 440.446 353.396 440.992 136 c 5
 440.992 68 413.593 2.99219 316 3 c 5
 222 3 107.659 162.733 75 305 c 5
 61.9355 305 l 5
 57.0371 -1 l 5
 57.0127 -0.902344 64.3008 -1.04297 72 -1 c 5xd8
 72 25 89 38 102 38 c 5
 132.25 38 238.81 -15 316.125 -15 c 4
 476.159 -15 578 100.357 578 237.831 c 5
 578 524 180 467 180 676 c 5
 180 715 186.199 798.31 291.009 797.997 c 5xe8
EndSplineSet
Validated: 37
EndChar

StartChar: M
Encoding: 77 77 44
Width: 1110
VWidth: 0
Flags: W
HStem: 0 8<34.9102 47.4872 295.895 309.642 675.129 691.328 1020.47 1035.13> 790.179 9.82098<11.1885 44.1596 1037.31 1082.35>
VStem: 163.367 17.818<96.3721 139.839> 768.129 174<40.4903 85 692 750.365>
LayerCount: 2
Fore
SplineSet
768.129 799.996 m 5
 768.129 85 l 2
 768.129 22 675.129 8 675.129 8 c 1
 675.129 0 l 1
 763.334 18.9893 933.997 20.9863 1035.13 0 c 1
 1035.13 8 l 1
 1035.13 8 942.129 21 942.129 85 c 2
 942.129 692 l 1
 942.129 741.5 974.966 789.365 1082.35 790.179 c 1
 1084 800 l 1
 866.73 777.946 858.932 786.527 768.129 799.996 c 5
506.66 101.5 m 17
 784.735 793.544 l 13
 768.129 800 l 21
 490.054 107.956 l 9
 506.66 101.5 l 17
168.91 696 m 1
 451.91 0 l 9
 465.245 0 l 25
 556.917 226.664 l 25
 323.41 800 l 17
 237.496 782.301 140.505 781.315 9.53516 800 c 1
 11.1885 790.179 l 1
 119.097 790.134 157.577 725 168.91 696 c 1
34.9102 0.00195312 m 1
 34.9102 0.00195312 160.545 33.6279 309.642 0.00585938 c 1
 309.642 8.00586 l 1
 309.642 8.00586 181.185 35.5059 181.185 139.839 c 1
 180.726 714.879 l 9
 162.91 714.878 l 17
 163.367 139.839 l 1
 163.367 35.5059 34.9102 8.00586 34.9102 8.00586 c 1
 34.9102 0.00195312 l 1
EndSplineSet
EndChar

StartChar: U
Encoding: 85 85 45
Width: 903
VWidth: 0
Flags: HW
HStem: -15 25.0488<422.016 545.161> 792 8<17.0186 33.2043 361.9 377.018 608.268 621.536 869.804 883>
VStem: 110.58 174.51<193.977 313.681 715 759.07> 736.529 16.4883<229.234 313.681 660.042 695.662>
LayerCount: 2
Fore
SplineSet
486.329 10.0488 m 1
 359.459 10.0381 285.09 117 285.09 231 c 1
 285.018 715 l 6
 284.879 778.001 378.018 792 378.018 792 c 5
 378.018 800 l 5
 273.496 781.08 101.936 782.841 17.0186 800 c 1
 17.0186 792 l 1
 17.0186 792 109.931 778.002 110.019 715 c 2
 110.58 313.681 l 2
 110.836 134 243.974 -15 450.58 -15 c 0
 653.018 -15 753.018 125.25 753.018 313.681 c 1
 754.543 660.042 l 1
 754.543 764.375 883 791.875 883 791.875 c 1
 883 799.875 l 1
 741.972 769.979 608.268 799.874 608.268 799.874 c 1
 608.268 791.875 l 1
 608.268 791.875 736.726 764.375 736.726 660.042 c 1
 736.529 305 l 1
 736.529 83.25 582.58 10.0488 486.329 10.0488 c 1
285.09 231 m 1
EndSplineSet
EndChar

StartChar: V
Encoding: 86 86 46
Width: 856
VWidth: 0
Flags: W
HStem: 792.499 8<363.233 377 532.965 551.695 825.956 846.463>
LayerCount: 2
Fore
SplineSet
471.463 179 m 21
 645.463 631.501 l 2
 701.286 776.673 532.965 792.499 532.965 792.499 c 1
 532.965 800.499 l 1
 609.455 784.319 731.101 779.502 846.51 800.498 c 1
 846.463 792.248 l 1
 734.631 789.498 661.463 623.501 661.463 623.501 c 1
 486.465 179 l 13
 471.463 179 l 21
493.466 198.001 m 5
 407.466 -18 l 5
 394.466 -18 l 5
 106.466 717.335 l 2
 82.6055 778.257 10 791.999 10 791.999 c 1
 10 799.999 l 1
 103.003 787.277 283.003 774.946 377 799.999 c 1
 377 791.999 l 1
 377 791.999 272.659 776.186 295.135 717.331 c 2
 493.466 198.001 l 5
EndSplineSet
Validated: 37
EndChar

StartChar: W
Encoding: 87 87 47
Width: 1379
VWidth: 0
Flags: W
HStem: 792.499 8<363.233 377 1056.22 1074.95 1349.21 1369.72>
LayerCount: 2
Fore
SplineSet
994.718 179 m 21
 1168.72 631.501 l 2
 1224.54 776.672 1056.22 792.499 1056.22 792.499 c 1
 1056.22 800.499 l 1
 1132.71 784.318 1254.36 779.502 1369.76 800.498 c 1
 1369.72 792.248 l 1
 1257.89 789.498 1184.72 623.501 1184.72 623.501 c 1
 1009.72 179 l 13
 994.718 179 l 21
1016.72 198.001 m 5
 930.721 -18 l 5
 917.721 -18 l 5
 629.721 717.335 l 2
 605.86 778.257 533.255 791.999 533.255 791.999 c 1
 533.255 799.999 l 1
 616.109 788.426 737.447 776.532 900.255 799.999 c 1
 900.255 791.999 l 1
 900.255 791.999 795.914 776.186 818.39 717.331 c 2
 1016.72 198.001 l 5
471.463 179 m 21
 641 619.333 l 1
 655.333 655.667 629.721 717.335 629.722 717.336 c 1
 605.333 778.333 532.943 792.529 532.965 792.499 c 1
 532.965 800.499 l 1
 609.455 784.319 784.894 779.253 900.303 800.249 c 1
 900.256 791.999 l 1
 788.344 789.055 670.333 644.667 661.463 623.501 c 1
 486.465 179 l 13
 471.463 179 l 21
493.466 198.001 m 5
 407.466 -18 l 5
 394.466 -18 l 5
 106.466 717.335 l 2
 82.6055 778.257 10 791.999 10 791.999 c 1
 10 799.999 l 1
 103.003 787.277 283.003 774.946 377 799.999 c 1
 377 791.999 l 1
 377 791.999 272.659 776.186 295.135 717.331 c 2
 493.466 198.001 l 5
EndSplineSet
Validated: 37
EndChar

StartChar: J
Encoding: 74 74 48
Width: 527
VWidth: 0
Flags: HW
HStem: -10 16<170.263 218.372> 792.5 8<157.148 172.266 500.952 517.147>
VStem: 0 150.151<39.5 160.611> 250.147 173.854<138.08 297.004 715.5 761.276>
LayerCount: 2
Fore
SplineSet
250.147 118 m 5
 250.147 88.5 249.723 5.78125 194.48 6 c 5
 168.814 6 150.151 20.5 150.151 58.5 c 5
 150.151 79 157.739 104.333 157.739 133 c 5
 157.739 192.8 117.001 211 74.1006 211 c 5
 27.3008 208.4 0 177.2 0 127.8 c 4
 0 71.9004 59.8145 -10 187.814 -10 c 5
 294.814 -10 424.147 34 424.001 297.004 c 5
 424.147 715.5 l 5
 424.174 778.504 517.147 792.5 517.147 792.5 c 5
 517.147 800.5 l 5
 432.23 783.341 261.67 781.58 157.148 800.5 c 5
 157.148 792.5 l 5
 157.148 792.5 250.148 778.502 250.148 715.5 c 6
 250.147 118 l 5
EndSplineSet
EndChar

StartChar: X
Encoding: 88 88 49
Width: 809
VWidth: 0
Flags: W
HStem: 0 8<11 30.0571 439 454.118 782.349 799> 792 8<33 49.6511 377.882 393 754.443 773.5>
LayerCount: 2
Fore
SplineSet
409.499 443.75 m 9
 421.75 429 l 17
 367.74 339.332 253 160 253 160 c 5
 166.07 21.4277 264.646 7.51953 265 8 c 1
 265 0 l 1
 177 11 92 11 11 0 c 1
 11 3 10 8 10 8 c 1
 55 8 176.452 73.6748 239 173 c 2
 409.499 443.75 l 9
365.251 340.25 m 9
 353 355 l 17
 531.5 640 l 2
 618.329 778.634 519.854 792.48 519.5 792 c 1
 519.5 800 l 1
 607.5 789 692.5 789 773.5 800 c 1
 773.5 797 774.5 792 774.5 792 c 1
 729.5 792 607.967 726.375 545.5 627 c 2
 365.251 340.25 l 9
507 79.5 m 2
 175 636 l 9
 293.678 773.82 l 17
 706 85 l 1
 733.177 37.1553 771 9.5 799 8 c 1
 799 0 l 1
 714.083 17.1592 543.521 18.9199 439 0 c 1
 439 8 l 1
 439 8 539.275 25.4004 507 79.5 c 2
325 720.5 m 2
 657 164 l 9
 538.322 26.1797 l 17
 126 715 l 1
 98.8232 762.845 61 790.5 33 792 c 1
 33 800 l 1
 117.917 782.841 288.478 781.08 393 800 c 1
 393 792 l 1
 393 792 292.725 774.6 325 720.5 c 2
EndSplineSet
Validated: 37
EndChar

StartChar: Y
Encoding: 89 89 50
Width: 849
VWidth: 0
Flags: W
HStem: 1 7<214 226.932 559.336 574> 792 8<10 26.6511 354.882 370 819.443 838.5>
VStem: 307 174<40.4903 436>
LayerCount: 2
Fore
SplineSet
381.501 263.5 m 9
 369.25 278.25 l 17
 596.5 640 l 2
 683.52 778.521 584.854 792.48 584.5 792 c 1
 584.5 800 l 1
 672.5 789 757.5 789 838.5 800 c 1
 838.5 797 839.5 792 839.5 792 c 1
 794.5 792 673.066 726.314 610.5 627 c 2
 381.501 263.5 l 9
481 436 m 21
 481 85 l 6
 481 21 574 8 574 8 c 5
 574 1 l 5
 472.868 11.5596 302.205 10.8799 214 1 c 5
 214 8 l 5
 214 8 307 22 307 85 c 6
 307 436 l 13
 481 436 l 21
302 720.5 m 2
 481 436 l 9
 398.5 242 l 17
 103 715 l 1
 75.8232 762.845 38 790.5 10 792 c 1
 10 800 l 1
 94.917 782.841 265.478 781.08 370 800 c 1
 370 792 l 1
 370 792 268.452 773.82 302 720.5 c 2
EndSplineSet
Validated: 37
EndChar

StartChar: G
Encoding: 71 71 51
Width: 803
VWidth: 0
Flags: W
HStem: -15 17<357.925 478.542> 364 8<406 423.044 779.366 793> 798 17<366.537 475.696>
VStem: 26 189<271.147 537.068> 710.5 8.5<-4 16.0269 489 519.322 778.496 803>
LayerCount: 2
Fore
SplineSet
418 815 m 5
 342 815 27.0498 717.689 26 406 c 1
 27.1592 145.176 243 -15 418 -15 c 1
 545 -15 626 64 673 64 c 1
 701.5 64 710.572 -4.01074 710.572 -4.01074 c 9
 719 -4 l 25
 719.166 293.833 l 25
 710.565 293.87 l 17
 710.565 293.87 648 2 417 2 c 1
 210 2 215 233 215 411 c 1
 215 548 215 798 418 798 c 1
 603 798 710.5 566 710.5 489 c 9
 719 489 l 25
 719 803 l 25
 710.625 803 l 17
 710.625 803 710.375 746 668 746 c 1
 633.875 746 547.5 815 418 815 c 5
406 372 m 1
 406 364 l 1
 406 364 545 339.5 545 287 c 2
 545 21 l 1
 719 133 l 1
 719 287 l 2
 719 351.001 793 364 793 364 c 1
 793 372 l 1
 701 351 500 353 406 372 c 1
EndSplineSet
Validated: 37
EndChar

StartChar: Z
Encoding: 90 90 52
Width: 808
VWidth: 0
Flags: W
HStem: 0 16.9854<290.5 338.658 338.659 423.825> 0 8<10 26.6511> 782.998 16.9893<378.233 529.197>
LayerCount: 2
Fore
SplineSet
338.659 16.9854 m 1xa0
 667.5 16.9854 711.159 282.957 711.159 283 c 9
 720.5 282.993 l 25
 678.161 0 l 17x60
 564.994 0 451.826 0 338.659 0 c 1
 338.659 0 288.997 3.71289 255.284 7.35938 c 0
 250.486 27.8154 l 1
 250.486 27.8154 290.5 16.9854 338.659 16.9854 c 1xa0
302 79.5 m 5
 269.536 25.6416 324.53 16.9814 338.659 16.9814 c 5
 338.658 0 l 5xa0
 10 0 l 5
 10 8 l 5
 38 9.5 75.8232 37.1553 103 85 c 5
 519.322 773.82 l 13
 638 636 l 21
 302 79.5 l 5
530.5 793.112 m 2
 530.5 793.112 579.655 786.802 614.5 786.561 c 1
 678.459 786.535 732.395 791.08 779 800.5 c 1
 779 792.5 l 1
 779 792.5 729.125 786.904 686 715.5 c 2
 269.678 26.1797 l 9
 151 164 l 17
 530.5 793.112 l 2
447.156 799.987 m 1
 486.49 798.821 496.787 796.759 530.5 793.112 c 0
 530.532 775.895 l 1
 530.532 775.895 508.281 782.998 447.151 782.998 c 0
 233.204 782.998 85.5381 568.113 85.5381 568.113 c 9
 76.1396 568.112 l 25
 153.37 771.612 l 17
 153.37 771.612 314.037 799.987 447.156 799.987 c 1
EndSplineSet
Validated: 37
EndChar

StartChar: zero
Encoding: 48 48 53
Width: 657
VWidth: 0
Flags: HMW
HStem: -15 16.9512<293.512 363.473> 798.004 16.985<286.154 370.053>
VStem: -151 60 14 198<212.177 556.221> 446 198<212.177 556.221>
LayerCount: 2
Fore
SplineSet
328 -15 m 1
 157 -15 14 113 14 394 c 1
 14 692 207.333 814.989 328.333 814.989 c 1
 448.667 814.989 642 692 642 394 c 1
 642 113 499 -15 328 -15 c 1
328.333 799.004 m 1
 259.333 799.004 212 712 212 390 c 1
 212 91 259 0 327.873 0.951172 c 1
 397 0 444 91 444 390 c 1
 444 712 396.667 799.004 328.333 799.004 c 1
EndSplineSet
Validated: 33
EndChar

StartChar: comma
Encoding: 44 44 54
Width: 301
VWidth: 0
Flags: W
HStem: -125.883 18.498<40.4477 54.8585>
LayerCount: 2
Fore
SplineSet
42.6953 -125.883 m 21
 175.411 -83.293 212.313 16.03 213 104 c 4
 213.5 168 165.503 195 126 195 c 4
 52 195 21.2295 95.7695 71.5 45.5 c 5
 161.186 -44.1865 74.0947 -96.6074 36.7559 -107.385 c 13
 42.6953 -125.883 l 21
EndSplineSet
Validated: 41
EndChar

StartChar: period
Encoding: 46 46 55
Width: 301
VWidth: 0
Flags: W
HStem: -10 175.001<74.1122 184.504>
VStem: 46.8779 166<19.0695 136.082>
LayerCount: 2
Fore
SplineSet
46.8779 78.001 m 4
 46.8779 125.001 80.8779 165.001 128.878 165.001 c 4
 176.878 165.001 212.878 125.001 212.878 78.001 c 4
 212.878 30 176.878 -10 128.878 -10 c 4
 80.8779 -10 46.8779 30 46.8779 78.001 c 4
EndSplineSet
Validated: 1
EndChar

StartChar: semicolon
Encoding: 59 59 56
Width: 301
VWidth: 0
Flags: W
HStem: -125.883 18.498<40.4477 54.8585> 335.028 175.001<74.1122 184.503>
VStem: 46.8779 166<364.098 481.11>
LayerCount: 2
Fore
SplineSet
46.8779 423.029 m 0
 46.8779 470.029 80.8779 510.029 128.878 510.029 c 0
 176.878 510.029 212.878 470.029 212.878 423.029 c 0
 212.878 375.028 176.878 335.028 128.878 335.028 c 0
 80.8779 335.028 46.8779 375.028 46.8779 423.029 c 0
42.6953 -125.883 m 21
 175.411 -83.293 212.313 16.03 213 104 c 4
 213.5 168 165.503 195 126 195 c 4
 52 195 21.2295 95.7695 71.5 45.5 c 5
 161.186 -44.1865 74.0947 -96.6074 36.7559 -107.385 c 13
 42.6953 -125.883 l 21
EndSplineSet
Validated: 41
EndChar

StartChar: colon
Encoding: 58 58 57
Width: 301
VWidth: 0
Flags: W
HStem: -10 175.001<74.1122 184.503> 335.028 175.001<74.1122 184.503>
VStem: 46.8779 166<19.0695 136.082 364.098 481.11>
LayerCount: 2
Fore
SplineSet
46.8779 78.001 m 4
 46.8779 125.001 80.8779 165.001 128.878 165.001 c 4
 176.878 165.001 212.878 125.001 212.878 78.001 c 4
 212.878 30 176.878 -10 128.878 -10 c 4
 80.8779 -10 46.8779 30 46.8779 78.001 c 4
46.8779 423.029 m 4
 46.8779 470.029 80.8779 510.029 128.878 510.029 c 4
 176.878 510.029 212.878 470.029 212.878 423.029 c 4
 212.878 375.028 176.878 335.028 128.878 335.028 c 4
 80.8779 335.028 46.8779 375.028 46.8779 423.029 c 4
EndSplineSet
Validated: 1
EndChar

StartChar: parenleft
Encoding: 40 40 58
Width: 318
VWidth: 0
Flags: W
HStem: -74 16.9854<268.8 300.666> 845.015 16.9854<268.801 300.667>
VStem: 38 147<228.601 559.399>
LayerCount: 2
Fore
SplineSet
185 394 m 5
 184.906 716.056 218.364 845.015 300.667 845.015 c 13
 300.667 862 l 21
 211 862.011 38 692 38 394 c 5
 38 96 211 -74.0107 300.666 -74 c 13
 300.666 -57.0146 l 21
 218.363 -57.0146 184.906 71.9443 185 394 c 5
EndSplineSet
Validated: 41
EndChar

StartChar: parenright
Encoding: 41 41 59
Width: 318
VWidth: 0
Flags: W
HStem: -74 16.9854<38.001 69.8671> 845.015 16.9854<38 69.8662>
VStem: 153.667 147<228.601 559.399>
LayerCount: 2
Fore
SplineSet
153.667 394 m 1
 153.761 716.056 120.303 845.015 38 845.015 c 9
 38 862 l 17
 127.667 862.011 300.667 692 300.667 394 c 1
 300.667 96 127.667 -74.0107 38.001 -74 c 9
 38.001 -57.0146 l 17
 120.304 -57.0146 153.761 71.9443 153.667 394 c 1
EndSplineSet
Validated: 33
EndChar

StartChar: nine
Encoding: 57 57 60
Width: 611
VWidth: 0
Flags: W
HStem: -19.25 7.75<99 112.975> 306 26<175.286 353.765> 782 17<254.504 333.989>
VStem: 29 162<441.942 645.074> 406 191<353.513 582.79>
LayerCount: 2
Fore
SplineSet
296 799 m 5
 222 799 159 774 107 725 c 4
 55 675 29 614 29 540 c 5
 29 442 94 306 263 306 c 5
 342 306 385.042 329.549 400.995 340.999 c 13
 400 360 l 21
 400 360 363 332 309 332 c 5
 206 332 191.585 445.737 191 541 c 5
 191 662.878 189.209 782 296 782 c 4
 403.714 782 406 652 406 514 c 4
 406 218 198.898 -8.36621 95 -11.5 c 13
 99 -19.25 l 21
 183.5 -19.25 597 120 597 474 c 5
 597 593 497 799 296 799 c 5
EndSplineSet
Validated: 37
EndChar

StartChar: eight
Encoding: 56 56 61
Width: 603
VWidth: 0
Flags: W
HStem: -15 17.875<227.932 320.285> 797.997 17.001<240.566 336.711>
VStem: -8.5 101.5<113.087 288.147> 30.5 130<440.7 695.5> 169.5 8<388 453> 421.492 137.008<102 380.916> 436.5 77<539.997 711.752>
LayerCount: 2
Fore
SplineSet
311.009 797.997 m 1xda
 216.5 797.997 188 715 188 676 c 1xda
 188 467 586 524 586 237.831 c 1
 586 100.357 456.536 -14.998 296.5 -15 c 1
 114.5 -15 19 79.5 19 203 c 1
 19 360 197 388 197 466 c 9
 205 453 l 17
 205 372 120.5 372 120.5 202.5 c 1
 120.5 78 229.167 2.875 295.625 2.875 c 1
 393.219 2.86816 448.992 68 448.992 136 c 1xec
 448.446 353.396 58 321.4 58 560 c 0
 58 702 167.5 815 315.01 814.998 c 1
 404 815 541 771 541 624 c 0
 541 466 377.5 454.5 377 452.5 c 1
 377 452.5 366.837 464.279 368 464.5 c 1
 370 465 461.377 451.128 464 624 c 1
 462 769 374 797.997 311.009 797.997 c 1xda
EndSplineSet
Validated: 37
EndChar

StartChar: one
Encoding: 49 49 62
Width: 430
VWidth: 0
Flags: W
HStem: 0 8<59.2002 72.8677 405.547 419.2> 699 7.52637<43.7988 63.4738> 780.33 20G<260.209 326.197>
VStem: 152.2 174<40.4903 691.849>
LayerCount: 2
Fore
SplineSet
317.418 800.33 m 0
 326.197 800.328 l 1
 326.2 85 l 2
 326.2 21 419.2 8 419.2 8 c 1
 419.2 0 l 1
 325.723 20.9863 152.788 18.9883 59.2002 0 c 1
 59.2002 8 l 1
 59.2002 8 152.116 22 152.2 85 c 2
 152.924 627.326 l 6
 152.904 666.209 150.667 675.664 142.665 683.666 c 4
 121.16 705.171 79 699 43.7988 699 c 5
 43.7988 706.526 l 5
 111.531 716.561 203 741 317.418 800.33 c 0
EndSplineSet
EndChar

StartChar: two
Encoding: 50 50 63
Width: 567
VWidth: 0
Flags: W
HStem: 688 126.989<204.091 370.461>
VStem: 9 17.999<0 79.5> 358 180<483.581 629.215> 521.998 8.00104<226.262 243.817>
LayerCount: 2
Fore
SplineSet
529.999 243.817 m 17xd0
 521.998 244.001 l 1
 521.998 244.001 508.998 152.001 444.998 152.001 c 2
 47.5 152 l 1
 35.75 127.5 8.99902 79.5 9 0 c 1
 492.636 0 l 9
 529.999 243.817 l 17xd0
26.999 -0.00195312 m 1
 26.999 336 538 276 538 580 c 0
 538 714 440 814.989 298.333 814.989 c 0
 200.855 814.989 55.8242 735.172 3.72754 548 c 9
 17.6709 547.998 l 17
 74.4062 629.85 154 688 225.983 688 c 1
 326 688 358 608 358 548 c 0xe0
 358 343 8 287 8 0 c 0
 26.999 -0.00195312 l 1
EndSplineSet
EndChar

StartChar: three
Encoding: 51 51 64
Width: 598
VWidth: 0
Flags: WO
HStem: -15 20<247.699 329.705> 416 79.5<369.5 477.5> 416 13.5<211.5 250.901> 695.5 119.5<213.342 360>
VStem: 12 191<90.673 213.693> 104.502 12.004<650.006 660.24> 359.6 166.27<541.216 698.275> 394.5 183<160.611 309.646>
LayerCount: 2
Fore
SplineSet
291.5 5 m 1xb9
 235.5 5 203 38 203 116 c 0
 203 178 194.5 246.916 110.167 246.916 c 1
 18.833 242.917 12 169 12 152.5 c 0
 12 59 138.5 -15 298.5 -15 c 1
 515.5 -15 577.5 183.119 577.5 257 c 1
 577.5 386 488.5 495.5 369.5 495.5 c 0xd9
 369.5 495.5 289.5 416 211.5 416 c 1
 321.5 416 393.41 323.835 394.5 213.25 c 1
 394.5 109 381.5 5 291.5 5 c 1xb9
211.5 416 m 17xb6
 477.5 416 525.87 548 525.87 636 c 0
 525.87 756 404.5 815 315.5 815 c 0
 225.5 815 104.5 761 104.502 650.001 c 9
 116.506 650.006 l 17
 116.506 663.971 154.036 695.5 219.2 695.5 c 0
 281.5 695.5 359.6 657.5 359.6 570 c 0
 359.6 490.2 319.7 429.5 211.2 429.5 c 9
 211.5 416 l 17xb6
EndSplineSet
Validated: 5
EndChar

StartChar: four
Encoding: 52 52 65
Width: 657
VWidth: 0
Flags: W
HStem: 0 8<267 280.685 606.583 620> 193.979 105.035<46.873 610.543> 793.5 20G<511.448 528>
LayerCount: 2
Fore
SplineSet
528 813.5 m 5
 46.873 232.097 l 5
 7.5498 262.979 l 5
 488.677 844.382 l 5
 495.677 845.382 l 5
 495.677 845.382 493 828 528 813.5 c 5
528 813.5 m 1
652.667 299.014 m 5
 625.333 270.229 610.543 223.896 610.543 193.979 c 5
 39.4863 194 l 5
 39.4863 194 46.873 232.097 7.54883 262.98 c 5
 39.4844 298.926 l 5
 652.667 299.014 l 5
360 85 m 2
 360 610.5 l 1
 528 813.5 l 1
 528 85 l 2
 528 21 620 8 620 8 c 1
 620 0 l 1
 528 21 361 19 267 0 c 1
 267 8 l 1
 267 8 360 22 360 85 c 2
EndSplineSet
Validated: 37
EndChar

StartChar: five
Encoding: 53 53 66
Width: 549
VWidth: 0
Flags: W
HStem: -15 20<242.003 328.042> 384 190<107.563 258.286>
VStem: 0 191<86.8828 213.693> 404.465 130.535<190.688 251.476>
LayerCount: 2
Fore
SplineSet
288 5 m 1
 227 5 191 38 191 116 c 0
 191 178 182.5 246.916 98.167 246.916 c 1
 6.83301 242.917 0 169 0 152.5 c 0
 0 59 111 -15 282.5 -15 c 5
 450 -15 535 186 535 303 c 1
 535 456.653 426.435 574 192.5 574 c 0
 133.5 574 83.6963 558.858 83.6963 558.858 c 1
 74.6963 491.025 63.917 436.753 47 371.5 c 1
 58.6689 371.338 l 1
 58.6689 371.338 71.3333 384 130 384 c 1
 324.529 384 405.5 277.232 404.465 138 c 0
 403.959 70.0019 347.497 5 288 5 c 1
139.949 799.84 m 9
 114 799.83 l 17
 94.9033 658.386 82.8535 512.944 47 371.5 c 1
 79 387 l 1
 109.307 523.277 117.539 663.562 139.949 799.84 c 9
517.409 842.5 m 17
 509.408 842.684 l 1
 509.408 842.684 501.408 799.834 437.407 799.834 c 2
 114.006 799.833 l 1
 106.791 748.299 101.5 698.75 94.75 647.833 c 1
 224.848 647.618 354.947 646.594 485.045 647.833 c 9
 517.409 842.5 l 17
EndSplineSet
Validated: 37
EndChar

StartChar: six
Encoding: 54 54 67
Width: 649
VWidth: 0
Flags: W
HStem: -19.25 17<292.011 372.206> 462.75 26<272.235 449.459> 791.25 7.75<513.025 527>
VStem: 29 191<196.96 426.237> 444 162<134.676 336.656>
LayerCount: 2
Fore
SplineSet
330 -19.25 m 1
 404 -19.25 476 5.75 528 54.75 c 0
 580 104.75 606 165.75 606 239.75 c 1
 606 337.75 532 488.75 363 488.75 c 1
 284 488.75 240.958 465.201 225.005 453.751 c 9
 226 434.75 l 17
 226 434.75 263 462.75 317 462.75 c 1
 420 462.75 443.415 334.013 444 238.75 c 1
 444 116.872 436.791 -2.25 330 -2.25 c 0
 222.286 -2.25 220 127.75 220 265.75 c 0
 220 561.75 427.102 788.116 531 791.25 c 9
 527 799 l 17
 442.5 799 29 659.75 29 305.75 c 1
 29 186.75 129 -19.25 330 -19.25 c 1
EndSplineSet
Validated: 5
EndChar

StartChar: seven
Encoding: 55 55 68
Width: 611
VWidth: 0
Flags: W
VStem: 177 203.989<0 117.508>
LayerCount: 2
Fore
SplineSet
380.989 -0.00488281 m 17
 380.989 358 579.285 731.352 579.285 731.352 c 1
 560.287 731.354 l 1
 560.287 731.354 191.276 303.235 177 0 c 9
 380.989 -0.00488281 l 17
579.168 800.331 m 1
 77.6699 800.332 l 9
 16.3057 605.665 l 17
 24.3066 605.481 l 1
 24.3066 605.481 39.5 648.331 96.3076 648.331 c 2
 539.5 648.333 l 1
 549.625 671 580.577 735.199 579.218 731 c 1
 579.188 765.518 579.168 800.331 579.168 800.331 c 1
EndSplineSet
Validated: 37
EndChar

StartChar: at
Encoding: 64 64 69
Width: 755
VWidth: 0
Flags: W
HStem: -167 17<250.276 392.811> 19.5 45<223 336.967> 19.5 18.168<531.328 584.214> 386.5 21<379.446 477> 504 17<355.186 481.71>
LayerCount: 2
Fore
SplineSet
543.335 19.5 m 1xb8
 415.667 19.5 397.533 39.1768 406 99.5 c 2
 438 327.5 l 2
 443 360.5 441 385.5 410 386.5 c 1
 359 386.5 319 358.5 311 303.5 c 1
 290 155.5 l 1
 285 111.5 286 64.5 336 64.5 c 0
 369 64.5 417 109.5 424 158.5 c 1
 430 147.5 l 1
 419 72.5 323 19.5 251 19.5 c 0xd8
 195 19.5 145 52.5 161 166.5 c 0
 170 228.5 187 258.5 216 290.5 c 0
 265 343.5 352 407.5 444 407.5 c 0
 510 407.5 548 379.5 557 327.5 c 0
 559 313.5 559 299.5 557 284.5 c 2
 530 91.5 l 2
 528 75.5 522 37.668 544 37.668 c 1
 619.848 37.668 664.595 116.93 674.037 183.015 c 0
 699.847 363.674 576.983 500.107 426.963 503.912 c 0
 424.656 503.971 422.336 504 420 504 c 0
 264.345 504 96.1191 365.062 69.9629 181.984 c 0
 44.0879 0.871094 125.419 -145.129 315.682 -149.872 c 0
 319.073 -149.957 322.512 -150 326 -150 c 0
 370.901 -150 418.037 -138.901 464.037 -116.86 c 1
 493.963 -128.141 l 1
 443.963 -152.099 387.099 -167 326 -167 c 0
 321.742 -167 317.521 -166.947 313.34 -166.844 c 0
 73.249 -160.857 4.81055 6.4209 30.0371 183.015 c 0
 55.8818 363.938 217.655 521 420 521 c 0
 423.127 521 426.242 520.961 429.344 520.882 c 0
 628.329 515.835 739.364 359.778 713.963 181.984 c 0
 705.403 122.07 671.488 19.5 543.335 19.5 c 1xb8
EndSplineSet
Validated: 37
EndChar

StartChar: question
Encoding: 63 63 70
Width: 476
VWidth: 0
Flags: W
HStem: -10 175.001<88.1122 198.503> 327 153<171 284.787> 741 60<242.29 332.073>
VStem: 60.8779 166<19.0695 136.082> 129 32<232 298.2> 425 40<554.655 669.377>
LayerCount: 2
Fore
SplineSet
60.8779 78.001 m 4xf4
 60.8779 125.001 94.8779 165.001 142.878 165.001 c 4
 190.878 165.001 226.878 125.001 226.878 78.001 c 4
 226.878 30 190.878 -10 142.878 -10 c 4
 94.8779 -10 60.8779 30 60.8779 78.001 c 4xf4
17 685 m 1
 17 656 41 618 91 618 c 1
 144 617 170.754 638.585 204 683 c 1
 234 719 266 741 311 741 c 1
 406.861 741.753 425 670 425 626 c 1
 425 488 271 480 197 480 c 9
 104 485 l 25
 129 232 l 25
 161 231 l 25xec
 171 327 l 17
 302 327 465 414 465 571 c 1
 465 639 435 801 212 801 c 1
 175 801 17 792 17 685 c 1
EndSplineSet
Validated: 41
EndChar

StartChar: uniFB02
Encoding: 256 64258 71
Width: 533
VWidth: 0
Flags: W
HStem: 0 8<20.5 32.3261 511.395 523> 434 7<80.5 213.5> 792.5 14.5<225.085 283.802>
VStem: 269 5.5<0 2> 328 135<22.1807 59 700 769.276>
LayerCount: 2
Fore
SplineSet
329.5 700 m 5
 328 54 l 6
 327.977 44 324 35 313 27 c 5
 304 19 294 14 283 12 c 6
 268 8 l 5
 269 5 269 2 269 0 c 5
 356.56 10.7031 440.55 10.7188 523 0 c 5
 523 8 l 5
 508 12 l 6
 497 15 487 20 478 27 c 4
 467 35 463 46 463 59 c 6
 463 799 l 5
 456 799 l 5
 429 783 426.626 783.316 407 775.167 c 4
 350 751.5 316.5 807.104 258.5 807 c 5
 130.5 807 105.5 555 24.5 443 c 5
 24.5 434 l 5
 372.75 434 l 5
 385.75 480 l 5
 216.5 480 l 5
 216.5 542 180.5 628 180.5 720 c 5
 184.898 764.625 214.5 792.5 254.5 792.5 c 5
 274.333 792.5 329.5 779.852 329.5 700 c 5
80.5 441 m 5
 80.5 54 l 6
 80.5 44 75.5 35 65.5 27 c 4
 55.5 19 45.5 14 35.5 12 c 6
 20.5 8 l 5
 20.5 0 l 5
 104.61 10.6943 188.39 10.7334 274.5 0 c 5
 274.5 8 l 5
 259.5 12 l 6
 248.5 15 238.5 20 229.5 27 c 4
 218.5 35 213.5 59 213.5 59 c 5
 213.5 441 l 5
 80.5 441 l 5
EndSplineSet
Validated: 37
LCarets2: 1 0 
Ligature2: "'liga' Ligatures standard dans Latin lookup 0-1" f l
EndChar

StartChar: bracketleft
Encoding: 91 91 72
Width: 359
Flags: HW
HStem: -91.4004 10<269.628 321> 849.267 10<269.628 321>
VStem: 61 141<-51.7129 819.579>
LayerCount: 2
Fore
SplineSet
321 -91.4004 m 1
 60 -91.4004 l 5
 60 859.267 l 1
 321 859.267 l 1
 321 849.267 l 1
 255 849.267 204 832.267 202 758.267 c 1
 202 9.59961 l 1
 204 -64.4004 255 -81.4004 321 -81.4004 c 1
 321 -91.4004 l 1
EndSplineSet
EndChar

StartChar: bracketright
Encoding: 93 93 73
Width: 359
Flags: HW
HStem: -91.4004 10<59 110.372> 849.267 10<59 110.372>
VStem: 178 141<-51.7129 9.59961 758.267 819.579>
LayerCount: 2
Fore
SplineSet
59 -91.4004 m 1
 319 -91.4004 l 1
 319 859.267 l 5
 59 859.267 l 1
 59 849.267 l 1
 125 849.267 176 832.267 178 758.267 c 1
 178 9.59961 l 1
 176 -64.4004 125 -81.4004 59 -81.4004 c 1
 59 -91.4004 l 1
EndSplineSet
EndChar

StartChar: backslash
Encoding: 92 92 74
Width: 295
Flags: W
HStem: 0 21G<242.326 284.75>
VStem: 10.75 274
LayerCount: 2
Fore
SplineSet
248.75 0 m 5
 10.75 741 l 5
 48 741 l 5
 284.75 0 l 5
 248.75 0 l 5
EndSplineSet
Validated: 1
EndChar

StartChar: exclam
Encoding: 33 33 75
Width: 282
Flags: W
HStem: -15 175.001<85.2343 195.626> 795 20G<110 172>
VStem: 58 166<14.0695 131.082 501.113 785.44>
LayerCount: 2
Fore
SplineSet
58 73.001 m 4
 58 120.001 92 160.001 140 160.001 c 4
 188 160.001 224 120.001 224 73.001 c 4
 224 25 188 -15 140 -15 c 4
 92 -15 58 25 58 73.001 c 4
153 192 m 5
 132 192 l 5
 132 192 58 551 58 715 c 4
 58 760 79 815 141 815 c 4
 203 815 224 760 224 715 c 4
 224 551 146 200 153 192 c 5
EndSplineSet
Validated: 33
EndChar

StartChar: ampersand
Encoding: 38 38 76
Width: 860
VWidth: 0
Flags: HW
HStem: -15 57<629.676 808.917> -15 17.875<244.874 364.282> 487 8<539 551.88> 797.997 17.001<275.078 357.435>
VStem: -9 129.5<120.435 280.253> 78 130<501.808 695.5> 197 8<388 453> 432 77<554.906 728.476>
LayerCount: 2
Fore
SplineSet
720.233 -15 m 1xb5
 850.233 -15 902.835 99.8564 880 118 c 1
 880 89.1769 823 42 766 42 c 1
 673 42 641 235 460 371 c 1
 346.378 461.477 208 482 208 676 c 1
 208 715 232.5 797.997 311.009 797.997 c 1
 374 797.997 432 767 432 641 c 1
 432 462 290 470.5 288 470 c 1
 286.837 469.779 297 458 297 458 c 1
 297.5 460 509 458 509 641 c 0
 509 771 404 815 315.01 814.998 c 1
 167.5 815 78 702 78 560 c 0
 78 387.507 183.338 339.105 367 227 c 4
 521 133 544.233 -15 720.233 -15 c 1xb5
629 403 m 0
 629 403 614 8 295.625 2.875 c 1
 197 5 120.5 78 120.5 202.5 c 1
 120.5 372 205 372 205 453 c 9
 197 466 l 17
 197 388 -9 360 -9 203 c 1
 -9 79.5 114.5 -15 296.5 -15 c 1x7b
 604 -15 640.283 332.418 684 397 c 0
 728 462 808 487 808 487 c 1
 808 495 l 1
 714 476 631 474 539 495 c 1
 539 487 l 1
 539 487 634 464 629 403 c 0
EndSplineSet
EndChar

StartChar: grave
Encoding: 96 96 78
Width: 516
Flags: W
HStem: 565.82 17.2295<296.708 335.556>
LayerCount: 2
Fore
SplineSet
344.355 565.82 m 21
 260.755 565.82 205.699 566.364 150.936 606.232 c 4
 111.093 635.236 116.366 677.312 134.459 701.764 c 4
 168.354 747.565 251.955 723.854 251.955 667.021 c 5
 251.955 627.054 272.488 583.05 335.556 583.05 c 13
 344.355 565.82 l 21
EndSplineSet
Validated: 33
EndChar

StartChar: acute
Encoding: 180 180 79
Width: 516
Flags: W
HStem: 565.82 17.2295<143.259 182.107>
LayerCount: 2
Fore
SplineSet
134.459 565.82 m 21
 218.06 565.82 273.115 566.364 327.879 606.232 c 4
 367.722 635.236 362.448 677.312 344.355 701.764 c 4
 310.461 747.565 226.859 723.854 226.859 667.021 c 5
 226.859 627.054 206.326 583.05 143.259 583.05 c 13
 134.459 565.82 l 21
EndSplineSet
Validated: 41
EndChar

StartChar: igrave
Encoding: 236 236 82
Width: 301
VWidth: 0
InSpiro: 1
Flags: W
HStem: 0 8<37 48.8312 278.945 291> 433 6<10 18.9637> 481 20G<191.5 231> 570 17.2295<198.353 237.201>
VStem: 96 135<22.2129 393.474>
LayerCount: 2
Fore
SplineSet
10 439 m 1
 107 454 159 461 224 501 c 1
 231 500 l 1
 231 59 l 1
 230 33 255 17 276 12 c 2
 291 8 l 1
 291 0 l 1
 205.195 10.7272 121.135 10.7226 37 0 c 1
 37 2 37 5 36 8 c 1
 51 12 l 2
 69 16 97 33 96 54 c 1
 97 320 l 2
 97 383 61 420 10 433 c 1
 10 439 l 1
  Spiro
    10 439 v
    94.0747 452.838 o
    161.248 470.504 o
    224 501 v
    231 500 v
    231 59 v
    237.543 36.3896 o
    254.798 20.6174 o
    276 12 [
    291 8 v
    291 0 v
    205.794 7.14687 o
    121.093 7.14584 o
    37 0 v
    36.9631 2.29374 o
    36.7033 5.03993 o
    36 8 v
    51 12 ]
    70.8686 19.9883 o
    88.7918 34.684 o
    96 54 v
    97 320 ]
    85.7994 374.362 o
    55.1835 411.955 o
    10 433 v
    0 0 z
  EndSpiro
EndSplineSet
Refer: 78 96 N 1 0 0 1 -98.3555 4.17969 2
Validated: 33
Ligature2: "'liga' Ligatures standard dans Latin lookup 0-1" grave
EndChar

StartChar: slash
Encoding: 47 47 98
Width: 295
Flags: W
LayerCount: 2
Fore
SplineSet
46.75 -73 m 5
 284.75 668 l 5
 247.5 668 l 5
 10.75 -73 l 5
 46.75 -73 l 5
EndSplineSet
Validated: 9
EndChar

StartChar: asciicircum
Encoding: 94 94 99
Width: 516
Flags: W
VStem: 233.543 51.957<627.747 719.5>
LayerCount: 2
Fore
SplineSet
403.459 566 m 13
 432.459 566 l 21
 295.375 721 l 5
 295.375 721 275.043 721 259.543 721 c 4
 259.543 721 233.543 719.5 233.543 661.5 c 5
 233.621 627.747 330.482 611.709 403.459 566 c 13
115.584 566 m 21
 188.561 611.709 285.421 627.747 285.5 661.5 c 5
 285.5 719.5 259.5 721 259.5 721 c 4
 223.667 721 l 5
 86.584 566 l 13
 115.584 566 l 21
EndSplineSet
Validated: 5
EndChar

StartChar: dieresis
Encoding: 168 168 110
Width: 543
VWidth: 0
Flags: W
HStem: 585.413 111.983<155.072 239.493 321.932 406.353>
VStem: 144.417 106.224<596.713 685.99> 311.276 106.224<596.713 685.99>
LayerCount: 2
Fore
SplineSet
311.276 641.726 m 1
 311.276 671.622 333.033 699.12 363.748 697.396 c 1
 394.464 697.396 417.5 671.801 417.5 641.726 c 0
 417.5 611.009 394.464 585.413 363.748 585.413 c 0
 333.033 585.413 311.276 611.009 311.276 641.726 c 1
144.417 641.726 m 1
 144.417 671.622 166.173 699.12 196.888 697.396 c 1
 227.604 697.396 250.641 671.801 250.641 641.726 c 0
 250.641 611.009 227.604 585.413 196.888 585.413 c 0
 166.173 585.413 144.417 611.009 144.417 641.726 c 1
EndSplineSet
Validated: 33
EndChar

StartChar: asciitilde
Encoding: 126 126 121
Width: 613
VWidth: 0
Flags: W
LayerCount: 2
Fore
SplineSet
419.527 653.271 m 21
 436.086 618.195 417.37 597.319 392.93 585.782 c 5
 314.701 549.099 259.964 694.858 174.207 654.381 c 4
 123.171 630.291 100.369 573.382 124.122 523.062 c 13
 129.554 527.384 l 21
 111.661 565.001 140.552 581.361 154.569 587.979 c 5
 229.687 623.434 276.72 470.718 379.573 519.265 c 5
 428.982 542.587 453.167 598.76 426.018 656.279 c 13
 419.527 653.271 l 21
EndSplineSet
Validated: 41
EndChar

StartChar: uniFB01
Encoding: 257 64257 128
Width: 533
VWidth: 0
Flags: W
HStem: 0 8<20.5 32.3261 516.939 529> 434 7<80.5 217.89> 481 20G<429.5 469> 792.5 14.5<224.316 283.266>
VStem: 80.5 133<27.3866 433 434.303 441> 274 0.5<0.0943584 8> 334 135<22.2129 375.833>
LayerCount: 2
Fore
SplineSet
213.351 439 m 1
 310.351 454 397 461 462 501 c 1
 469 500 l 1
 469 59 l 1
 468 33 493 17 514 12 c 2
 529 8 l 1
 529 0 l 1
 443.195 10.7275 358.135 10.7227 274 0 c 1
 274 2 273.833 4.83333 274 8 c 1
 289 12 l 2
 307 16 335 33 334 54 c 1
 334 320 l 6
 334 383 264.351 420 213.351 433 c 1
 213.351 439 l 1
254.5 792.5 m 1
 214.5 792.5 184.898 764.625 180.5 720 c 1
 180.5 628 213.5 542 213.5 480 c 1
 213.501 479.999 l 1
 213.688 434.303 l 1
 24.5 434 l 1
 24.5 443 l 1
 105.5 555 130.5 807 258.5 807 c 1
 382.728 807 433.744 682 433.744 626.115 c 0
 433.744 562.113 386.247 535.115 346.744 535.115 c 0
 272.744 535.115 228 620.371 292.244 684.615 c 1
 337 729.371 313 792.5 254.5 792.5 c 1
80.5 441 m 1
 213.5 441 l 1
 213.5 59 l 1
 213.5 59 218.5 35 229.5 27 c 0
 238.5 20 248.5 15 259.5 12 c 2
 274.5 8 l 1
 274.5 0 l 1
 188.39 10.7334 104.61 10.6943 20.5 0 c 1
 20.5 8 l 1
 35.5 12 l 2
 45.5 14 55.5 19 65.5 27 c 0
 75.5 35 80.5 44 80.5 54 c 2
 80.5 441 l 1
EndSplineSet
Validated: 37
LCarets2: 1 0 
Ligature2: "'liga' Ligatures standard dans Latin lookup 0-1" f i
EndChar

StartChar: iacute
Encoding: 237 237 129
Width: 301
VWidth: 0
Flags: W
HStem: 0 8<37 48.8312 278.945 291> 433 6<10 18.9637> 481 20G<191.5 231> 570 17.2295<23.8 62.648>
VStem: 96 135<22.2129 393.474>
LayerCount: 2
Fore
SplineSet
10 439 m 5
 107 454 159 461 224 501 c 5
 231 500 l 5
 231 59 l 5
 230 33 255 17 276 12 c 6
 291 8 l 5
 291 0 l 5
 205.195 10.7272 121.135 10.7226 37 0 c 5
 37 2 37 5 36 8 c 5
 51 12 l 6
 69 16 97 33 96 54 c 5
 97 320 l 6
 97 383 61 420 10 433 c 5
 10 439 l 5
  Spiro
    10 439 v
    94.0747 452.838 o
    161.248 470.504 o
    224 501 v
    231 500 v
    231 59 v
    237.543 36.3896 o
    254.798 20.6174 o
    276 12 [
    291 8 v
    291 0 v
    205.794 7.14687 o
    121.093 7.14584 o
    37 0 v
    36.9631 2.29374 o
    36.7033 5.03993 o
    36 8 v
    51 12 ]
    70.8686 19.9883 o
    88.7918 34.684 o
    96 54 v
    97 320 ]
    85.7994 374.362 o
    55.1835 411.955 o
    10 433 v
    0 0 z
  EndSpiro
EndSplineSet
Refer: 79 180 N 1 0 0 1 -119.459 4.17969 2
Validated: 41
EndChar

StartChar: icircumflex
Encoding: 238 238 130
Width: 301
VWidth: 0
Flags: W
HStem: 0 8<37 48.8312 278.945 291> 433 6<10 18.9637> 481 20G<191.5 231>
VStem: 96 135<22.2129 393.474> 123.543 51.957<651.694 743.447>
LayerCount: 2
Fore
SplineSet
10 439 m 5xf0
 107 454 159 461 224 501 c 5
 231 500 l 5
 231 59 l 5
 230 33 255 17 276 12 c 6
 291 8 l 5
 291 0 l 5
 205.195 10.7272 121.135 10.7226 37 0 c 5
 37 2 37 5 36 8 c 5
 51 12 l 6
 69 16 97 33 96 54 c 5
 97 320 l 6
 97 383 61 420 10 433 c 5
 10 439 l 5xf0
  Spiro
    10 439 v
    94.0747 452.838 o
    161.248 470.504 o
    224 501 v
    231 500 v
    231 59 v
    237.543 36.3896 o
    254.798 20.6174 o
    276 12 [
    291 8 v
    291 0 v
    205.794 7.14687 o
    121.093 7.14584 o
    37 0 v
    36.9631 2.29374 o
    36.7033 5.03993 o
    36 8 v
    51 12 ]
    70.8686 19.9883 o
    88.7918 34.684 o
    96 54 v
    97 320 ]
    85.7994 374.362 o
    55.1835 411.955 o
    10 433 v
    0 0 z
  EndSpiro
EndSplineSet
Refer: 99 94 N 1 0 0 1 -110 23.9473 2
Validated: 37
EndChar

StartChar: idieresis
Encoding: 239 239 131
Width: 301
VWidth: 0
Flags: W
HStem: 0 8<37 48.8312 278.945 291> 433 6<10 18.9637> 481 20G<191.5 231> 570 111.983<23.1135 107.535 189.974 274.395>
VStem: 12.4585 106.224<581.3 670.577> 96 135<22.2129 393.474> 179.318 106.224<581.3 670.577>
LayerCount: 2
Fore
SplineSet
10 439 m 1xf4
 107 454 159 461 224 501 c 1
 231 500 l 1
 231 59 l 1
 230 33 255 17 276 12 c 2
 291 8 l 1
 291 0 l 1
 205.195 10.7272 121.135 10.7226 37 0 c 1
 37 2 37 5 36 8 c 1
 51 12 l 2
 69 16 97 33 96 54 c 1
 97 320 l 2
 97 383 61 420 10 433 c 1
 10 439 l 1xf4
  Spiro
    10 439 v
    94.0747 452.838 o
    161.248 470.504 o
    224 501 v
    231 500 v
    231 59 v
    237.543 36.3896 o
    254.798 20.6174 o
    276 12 [
    291 8 v
    291 0 v
    205.794 7.14687 o
    121.093 7.14584 o
    37 0 v
    36.9631 2.29374 o
    36.7033 5.03993 o
    36 8 v
    51 12 ]
    70.8686 19.9883 o
    88.7918 34.684 o
    96 54 v
    97 320 ]
    85.7994 374.362 o
    55.1835 411.955 o
    10 433 v
    0 0 z
  EndSpiro
EndSplineSet
Refer: 110 168 N 1 0 0 1 -131.958 -15.4131 2
Validated: 33
EndChar

StartChar: bar
Encoding: 124 124 133
Width: 84
Flags: W
LayerCount: 2
Fore
SplineSet
57.7021 -117.917 m 5
 58.2764 861.271 l 5
 29.8203 861.725 l 5
 30.3906 -117.959 l 5
 57.7021 -117.917 l 5
EndSplineSet
Validated: 1
EndChar

StartChar: cedilla
Encoding: 184 184 134
Width: 532
VWidth: 0
Flags: W
VStem: 308.542 13.956<-26.2136 5.68457>
LayerCount: 2
Fore
SplineSet
322.498 12.8125 m 9
 308.542 5.68457 l 17
 308.542 -45.4004 272.898 -62.0312 240.524 -62.0312 c 1
 194.49 -62.0312 175.283 -129.749 212.383 -157.203 c 0
 232.188 -171.859 272.33 -174.407 294.764 -143.857 c 4
 324.123 -103.876 322.498 -54.9033 322.498 12.8125 c 9
EndSplineSet
EndChar

StartChar: ae
Encoding: 230 230 137
Width: 813
VWidth: 0
Flags: W
HStem: -11 100<547.309 658.034> -10 45<112 230.79> 288 18<420 777> 489 21<230.437 335.5 510.666 604.576>
VStem: 24 149<283.729 369.922> 26 138<50.5949 153.83> 303 34<100 135.5>
LayerCount: 2
Fore
SplineSet
440 387 m 9x3a
 303 249 l 17
 306 430 l 2
 306.547 462.995 301 488 267 489 c 1
 212 489 172 465 172 410 c 1
 173 363 l 1
 173 302 146 252 89 253 c 0
 54 253 23 277 24 311 c 0
 24 334 37 361 63 393 c 0
 108 446 201 510 300 510 c 0
 371 510 415 482 433 430 c 0
 437 416 440 402 440 387 c 9x3a
303 249 m 0
 303 396 416 510 563 510 c 0
 695 510 780 384 780 288 c 1
 646 288 l 1
 646 384 643 493 563 493 c 0
 381 493 405 89 629 89 c 0
 666 89 725 93 769 163 c 1
 779 162 l 1
 779 158.917 735 -11 562 -11 c 1xb2
 414 -11 303 100 303 249 c 0
780 288 m 1
 420 288 l 1
 412 306 l 1
 777 306 l 1
 780 288 l 1
337 135.5 m 1
 337 51.5 219 -10 142 -10 c 0
 82 -10 26 32 26 91 c 1
 24 175 117 213 176 240 c 0
 222 261 286 284 335 304 c 1
 337 292 338 286 339 285 c 1
 245 253 160 236 164 125 c 0
 165 81 173 35 227 35 c 0x76
 262 35 325 88 325 147 c 1
 337 135.5 l 1
EndSplineSet
Validated: 37
EndChar

StartChar: guillemotleft
Encoding: 171 171 138
Width: 479
Flags: W
LayerCount: 2
Fore
SplineSet
242.667 237.5 m 1
 419 410.791 l 1
 419 381.792 l 1
 387.956 332.229 370.599 271.649 352.082 237.854 c 1
 370.598 204.058 387.955 143.479 419 93.916 c 1
 419 64.917 l 1
 242.667 237.5 l 1
60.082 237.5 m 1
 236.415 410.791 l 1
 236.415 381.792 l 1
 205.371 332.229 188.014 271.649 169.497 237.854 c 1
 188.014 204.058 205.371 143.479 236.415 93.916 c 1
 236.415 64.917 l 1
 60.082 237.5 l 1
EndSplineSet
Validated: 1
EndChar

StartChar: guillemotright
Encoding: 187 187 139
Width: 479
Flags: W
LayerCount: 2
Fore
SplineSet
236.415 237.5 m 5
 60.082 410.791 l 5
 60.082 381.792 l 5
 91.126 332.229 108.483 271.649 127 237.854 c 5
 108.484 204.058 91.127 143.479 60.082 93.916 c 5
 60.082 64.917 l 5
 236.415 237.5 l 5
419 237.5 m 5
 242.667 410.791 l 5
 242.667 381.792 l 5
 273.711 332.229 291.068 271.649 309.585 237.854 c 5
 291.068 204.058 273.711 143.479 242.667 93.916 c 5
 242.667 64.917 l 5
 419 237.5 l 5
EndSplineSet
Validated: 9
EndChar

StartChar: braceleft
Encoding: 123 123 140
Width: 193
VWidth: 0
Flags: W
HStem: 357.344 9.125<38.2617 95.3359>
LayerCount: 2
Fore
SplineSet
156.752 -129.811 m 13
 159.488 -140.715 l 21
 107.146 -186.326 56.0293 -145.693 34.8066 -62.6875 c 5
 -9.37109 110.105 129.6 189.121 97.3359 315.32 c 5
 91.3125 338.867 82.1543 357.344 38.2617 357.344 c 13
 38.2617 366.469 l 21
 95.3359 366.469 135.84 368.286 157.762 282.326 c 5
 194.596 138.256 61.9551 46.2988 95.3359 -85.127 c 5
 105.834 -126.188 124.832 -157.629 156.752 -129.811 c 13
156.752 853.623 m 21
 124.832 881.441 105.834 850 95.3359 808.939 c 5
 61.9551 677.514 194.596 585.557 157.762 441.486 c 5
 135.84 355.526 95.3359 357.344 38.2617 357.344 c 13
 38.2617 366.469 l 21
 82.1543 366.469 91.3125 384.945 97.3359 408.492 c 5
 129.6 534.691 -9.37109 613.707 34.8066 786.5 c 5
 56.0293 869.506 107.146 910.139 159.488 864.527 c 13
 156.752 853.623 l 21
EndSplineSet
Validated: 37
EndChar

StartChar: uniFB00
Encoding: 258 64256 141
Width: 613
VWidth: 0
Flags: W
HStem: 0 8<20.5 32.3261 510.906 523> 434 7<80.5 213.5 372.75 462> 776.661 30.3389<463.007 536> 792.5 14.5<224.752 291.324>
VStem: 269 5.5<0 8> 356.958 72.042<620 664.449> 482 121<650.434 764.05>
LayerCount: 2
Fore
SplineSet
356.958 620 m 13xde
 376 660 l 21
 376 721.5 354 807 258.5 807 c 5
 130.5 807 105.5 555 24.5 443 c 5
 24.5 434 l 5
 372.75 434 l 5
 385.75 480 l 5
 216.5 480 l 5
 216.5 542 180.5 628 180.5 720 c 5
 180.5 760.5 214.5 792.5 254.5 792.5 c 5
 315.958 792.5 356.958 749 356.958 620 c 13xde
548 434 m 1
 561 480 l 1
 465 480 l 1
 465 542 429 628 429 720 c 1
 433.398 764.625 457.333 776.661 468.347 776.661 c 1
 502.667 776.661 482 726.667 482 696 c 1
 482 650 513 637 546 637 c 0
 577 637 602 662 603 701 c 1
 603 744 565 807 507 807 c 0xee
 379 807 360 480 216.5 480 c 1
 273 434 l 1
 548 434 l 1
329 441 m 1
 329 54 l 2
 329 44 324 35 314 27 c 0
 304 19 294 14 284 12 c 2
 269 8 l 1
 269 0 l 1
 353.11 10.6943 436.89 10.7334 523 0 c 1
 523 8 l 1
 508 12 l 2
 497 15 487 20 478 27 c 0
 467 35 462 59 462 59 c 1
 462 441 l 1
 329 441 l 1
80.5 441 m 5
 80.5 54 l 6
 80.5 44 75.5 35 65.5 27 c 4
 55.5 19 45.5 14 35.5 12 c 6
 20.5 8 l 5
 20.5 0 l 5
 104.61 10.6943 188.39 10.7334 274.5 0 c 5
 274.5 8 l 5
 259.5 12 l 6
 248.5 15 238.5 20 229.5 27 c 4
 218.5 35 213.5 59 213.5 59 c 5
 213.5 441 l 5
 80.5 441 l 5
EndSplineSet
Validated: 37
LCarets2: 1 0 
Ligature2: "'liga' Ligatures standard dans Latin lookup 0-1" f f
EndChar

StartChar: uniFB04
Encoding: 259 64260 142
Width: 786
VWidth: 0
Flags: W
HStem: 0 8<20.875 32.7011 759.333 770.938> 434 7<80.875 213.875 373.125 461.438> 792.5 14.5<225.127 291.699 478.366 531.74>
VStem: 268.438 6.4375<0 8> 357.333 71.1045<620 664.449> 516.938 5.5<0 2> 575.938 135<22.1807 59 700 769.276>
LayerCount: 2
Back
SplineSet
548 434 m 5
 561 480 l 5
 465 480 l 5
 465 542 429 628 429 720 c 5
 433.398 764.625 457.333 776.661 468.347 776.661 c 5
 502.667 776.661 482 726.667 482 696 c 5
 482 650 513 637 546 637 c 4
 577 637 602 662 603 701 c 5
 603 744 565 807 507 807 c 4xee
 379 807 360 480 216.5 480 c 5
 273 434 l 5
 548 434 l 5
329 441 m 5
 329 54 l 6
 329 44 324 35 314 27 c 4
 304 19 294 14 284 12 c 6
 269 8 l 5
 269 0 l 5
 353.11 10.6943 436.89 10.7334 523 0 c 5
 523 8 l 5
 508 12 l 6
 497 15 487 20 478 27 c 4
 467 35 462 59 462 59 c 5
 462 441 l 5
 329 441 l 5
EndSplineSet
Fore
SplineSet
577.438 700 m 1
 575.938 54 l 2
 575.914 44 571.938 35 560.938 27 c 1
 551.938 19 541.938 14 530.938 12 c 2
 515.938 8 l 1
 516.938 5 516.938 2 516.938 0 c 1
 604.497 10.7031 688.487 10.7188 770.938 0 c 1
 770.938 8 l 1
 755.938 12 l 2
 744.938 15 734.938 20 725.938 27 c 0
 714.938 35 710.938 46 710.938 59 c 2
 710.938 799 l 1
 703.938 799 l 1
 676.938 783 674.563 783.316 654.938 775.167 c 0
 597.938 751.5 564.438 807.104 506.438 807 c 1
 378.438 807 362 480 216.875 480 c 1
 272.438 434 l 1
 620.688 434 l 1
 633.688 480 l 1
 464.438 480 l 1
 464.438 542 428.438 628 428.438 720 c 1
 432.836 764.625 462.438 792.5 502.438 792.5 c 1
 522.271 792.5 577.438 779.852 577.438 700 c 1
328.438 441 m 1
 328.438 54 l 2
 328.438 44 323.438 35 313.438 27 c 0
 303.438 19 293.438 14 283.438 12 c 2
 268.438 8 l 1
 268.438 0 l 1
 352.548 10.6943 436.327 10.7334 522.438 0 c 1
 522.438 8 l 1
 507.438 12 l 2
 496.438 15 486.438 20 477.438 27 c 0
 466.438 35 461.438 59 461.438 59 c 1
 461.438 441 l 1
 328.438 441 l 1
357.333 620 m 9
 376.375 660 l 17
 376.375 721.5 354.375 807 258.875 807 c 1
 130.875 807 105.875 555 24.875 443 c 1
 24.875 434 l 1
 373.125 434 l 1
 386.125 480 l 1
 216.875 480 l 1
 216.875 542 180.875 628 180.875 720 c 1
 180.875 760.5 214.875 792.5 254.875 792.5 c 1
 316.333 792.5 357.333 749 357.333 620 c 9
80.875 441 m 1
 80.875 54 l 2
 80.875 44 75.875 35 65.875 27 c 0
 55.875 19 45.875 14 35.875 12 c 2
 20.875 8 l 1
 20.875 0 l 1
 104.985 10.6943 188.765 10.7334 274.875 0 c 1
 274.875 8 l 1
 259.875 12 l 2
 248.875 15 238.875 20 229.875 27 c 0
 218.875 35 213.875 59 213.875 59 c 1
 213.875 441 l 1
 80.875 441 l 1
EndSplineSet
Validated: 37
LCarets2: 3 0 0 0 
Ligature2: "'liga' Ligatures standard dans Latin lookup 0-1" f f l 
EndChar

StartChar: uniFB03
Encoding: 260 64259 143
Width: 786
VWidth: 0
Flags: W
HStem: 0 8<20.875 32.7011 763.939 776> 434 7<80.875 213.875 327.5 464.889> 481 20G<675.5 715> 792.5 14.5<225.127 291.699 476.365 530.535>
VStem: 80.875 133<27.3866 441> 267.5 7.375<0 8> 327.5 133<27.3866 433> 521 0.5<0.0943589 8> 581 135<22.2129 375.833>
LayerCount: 2
Fore
SplineSet
460.351 439 m 5
 557.351 454 643 461 708 501 c 5
 715 500 l 5
 716 59 l 5
 715 33 740 17 761 12 c 6
 776 8 l 5
 776 0 l 5
 690.195 10.7275 605.135 10.7227 521 0 c 5
 521 2 520.833 4.83398 521 8 c 5
 536 12 l 6
 554 16 582 33 581 54 c 5
 581 320 l 6
 581 383 511.351 420 460.351 433 c 5
 460.351 439 l 5
501.5 792.5 m 5
 461.5 792.5 431.898 764.625 427.5 720 c 5
 427.5 628 460.5 542 460.5 480 c 5
 460.501 479.999 l 5
 460.688 434.303 l 5
 271.5 434 l 5
 216.875 480 l 5
 362.375 480 377.5 807 505.5 807 c 5
 633 807 680.744 690.5 680.744 626.115 c 4
 680.744 562.113 633.247 535.115 593.744 535.115 c 4
 519.744 535.115 475 620.371 539.244 684.615 c 5
 584 729.371 560 792.5 501.5 792.5 c 5
327.5 441 m 5
 460.5 441 l 5
 460.5 59 l 5
 460.5 59 465.5 35 476.5 27 c 4
 485.5 20 495.5 15 506.5 12 c 6
 521.5 8 l 5
 521.5 0 l 5
 435.39 10.7334 351.61 10.6943 267.5 0 c 5
 267.5 8 l 5
 282.5 12 l 6
 292.5 14 302.5 19 312.5 27 c 4
 322.5 35 327.5 44 327.5 54 c 6
 327.5 441 l 5
357.333 620 m 21
 357.333 749 316.333 792.5 254.875 792.5 c 5
 214.875 792.5 180.875 760.5 180.875 720 c 5
 180.875 628 216.875 542 216.875 480 c 5
 386.125 480 l 5
 373.125 434 l 5
 24.875 434 l 5
 24.875 443 l 5
 105.875 555 130.875 807 258.875 807 c 5
 354.375 807 376.375 721.5 376.375 660 c 13
 357.333 620 l 21
80.875 441 m 5
 213.875 441 l 5
 213.875 59 l 5
 213.875 59 218.875 35 229.875 27 c 4
 238.875 20 248.875 15 259.875 12 c 6
 274.875 8 l 5
 274.875 0 l 5
 188.765 10.7334 104.985 10.6943 20.875 0 c 5
 20.875 8 l 5
 35.875 12 l 6
 45.875 14 55.875 19 65.875 27 c 4
 75.875 35 80.875 44 80.875 54 c 6
 80.875 441 l 5
EndSplineSet
Validated: 37
LCarets2: 2 0 0 
Ligature2: "'liga' Ligatures standard dans Latin lookup 0-1" f f i
EndChar

StartChar: uniFB05
Encoding: 261 64261 144
Width: 613
VWidth: 0
Flags: W
HStem: -10 40<411.125 563.551> 0 8<20.5 32.3261 262.406 274.5> 434 7<80.5 213.125> 462 7<337.125 470.125> 792.5 14.5<224.752 291.324>
VStem: 337.125 134<55.2418 469> 356.958 19.042<660 708.914>
LayerCount: 2
Fore
SplineSet
337.125 139 m 2xbc
 337.125 469 l 1
 470.125 469 l 1
 471.125 144 l 1
 474.125 57 502.125 30 540.125 30 c 0
 582.125 30 612.125 61 611.125 62 c 2
 619.125 56 l 1
 619.125 56 576.125 -10 478.125 -10 c 0
 344.125 -10 337.125 106 337.125 139 c 2xbc
463.125 668 m 1
 473.125 668 l 1
 473.125 668 474.125 554 474.125 508 c 1
 585.125 508 l 1
 572.125 462 l 1
 282.125 462 l 1
 282.125 471 l 1
 282.125 471 383.125 544 463.125 668 c 1
213.5 480 m 1
 213.5 542 180.5 628 180.5 720 c 1
 180.5 760.5 214.5 792.5 254.5 792.5 c 1
 315.958 792.5 356.958 749 356.958 620 c 9
 376 660 l 17x3a
 376 721.5 354 807 258.5 807 c 1
 130.5 807 105.5 555 24.5 443 c 1
 24.5 434 l 1
 213.125 434 l 1
 213.5 480 l 1
80.5 441 m 1
 80.5 54 l 2
 80.5 44 75.5 35 65.5 27 c 0
 55.5 19 45.5 14 35.5 12 c 2
 20.5 8 l 1
 20.5 0 l 1
 104.61 10.6943 188.39 10.7334 274.5 0 c 1
 274.5 8 l 1x78
 259.5 12 l 2
 248.5 15 238.5 20 229.5 27 c 0
 218.5 35 213.5 59 213.5 59 c 1
 213.5 441 l 1
 80.5 441 l 1
EndSplineSet
Validated: 37
EndChar

StartChar: quotesingle
Encoding: 39 39 145
Width: 189
Flags: W
HStem: 553.979 269.477<85.1407 103.965>
VStem: 53.2158 82.6738<622.521 818.826>
LayerCount: 2
Fore
SplineSet
100.529 553.979 m 5
 90.0703 553.979 l 5
 90.0703 553.979 53.2158 691.975 53.2158 773.651 c 4
 53.2158 796.063 63.6748 823.456 94.5527 823.456 c 4
 125.431 823.456 135.89 796.063 135.89 773.651 c 4
 135.89 691.975 97.043 557.964 100.529 553.979 c 5
EndSplineSet
Validated: 33
EndChar

StartChar: equal
Encoding: 61 61 146
Width: 540
Flags: W
HStem: 144 76<65 471> 334 76<65 471>
LayerCount: 2
Fore
SplineSet
65 334 m 5
 65 410 l 5
 471 410 l 5
 471 334 l 5
 65 334 l 5
65 144 m 5
 65 220 l 5
 471 220 l 5
 471 144 l 5
 65 144 l 5
EndSplineSet
Validated: 1
EndChar

StartChar: uni0080
Encoding: 128 128 147
Width: 213
VWidth: 0
Flags: W
HStem: 595.949 238.965
LayerCount: 2
Fore
SplineSet
117.407 595.949 m 13
 105.179 610.236 l 21
 128.52 666.921 96.5674 701.66 60.6455 716.452 c 5
 9.56543 737.485 19.1943 821.402 72.9033 834.914 c 4
 101.577 842.127 141.349 831.294 152.669 784.749 c 4
 168.233 720.773 148.347 671.088 117.407 595.949 c 13
EndSplineSet
Validated: 33
EndChar

StartChar: quotedbl
Encoding: 34 34 148
Width: 309
Flags: W
HStem: 553.979 269.477<85.1407 103.965 207.251 226.075>
VStem: 53.2158 82.6738<622.521 818.826> 175.326 82.6738<622.521 818.826>
LayerCount: 2
Fore
SplineSet
222.64 553.979 m 1
 212.181 553.979 l 1
 212.181 553.979 175.326 691.975 175.326 773.651 c 0
 175.326 796.063 185.785 823.456 216.663 823.456 c 0
 247.541 823.456 258 796.063 258 773.651 c 0
 258 691.975 219.153 557.964 222.64 553.979 c 1
100.529 553.979 m 5
 90.0703 553.979 l 5
 90.0703 553.979 53.2158 691.975 53.2158 773.651 c 4
 53.2158 796.063 63.6748 823.456 94.5527 823.456 c 4
 125.431 823.456 135.89 796.063 135.89 773.651 c 4
 135.89 691.975 97.043 557.964 100.529 553.979 c 5
EndSplineSet
Validated: 33
EndChar

StartChar: hyphen
Encoding: 45 45 149
Width: 348
Flags: W
HStem: 171 76<42 314>
VStem: 42 272<171 247>
LayerCount: 2
Fore
SplineSet
42 171 m 5
 42 247 l 5
 314 247 l 5
 314 171 l 5
 42 171 l 5
EndSplineSet
Validated: 1
EndChar

StartChar: underscore
Encoding: 95 95 150
Width: 694
Flags: W
HStem: -76 76<44 648>
LayerCount: 2
Fore
SplineSet
44 -76 m 1
 44 0 l 1
 648 0 l 1
 648 -76 l 1
 44 -76 l 1
EndSplineSet
Validated: 1
EndChar

StartChar: less
Encoding: 60 60 151
Width: 297
Flags: W
LayerCount: 2
Fore
SplineSet
40.082 237.5 m 5
 277 1.39551 l 5
 277 30.3945 l 5
 245.957 79.957 168.014 203.351 149.498 237.146 c 5
 168.014 271.649 245.957 395.043 277 444.605 c 5
 277 473.604 l 5
 40.082 237.5 l 5
EndSplineSet
Validated: 9
EndChar

StartChar: greater
Encoding: 62 62 152
Width: 297
Flags: W
LayerCount: 2
Fore
SplineSet
257 237.5 m 5
 20.082 473.604 l 5
 20.082 444.605 l 5
 51.125 395.043 129.068 271.649 147.584 237.854 c 5
 129.068 203.351 51.125 79.957 20.082 30.3945 c 5
 20.082 1.39551 l 5
 257 237.5 l 5
EndSplineSet
Validated: 9
EndChar

StartChar: plus
Encoding: 43 43 153
Width: 540
Flags: W
HStem: 241 76<65 471>
VStem: 224 84<79 485>
LayerCount: 2
Fore
SplineSet
308 79 m 5
 224 79 l 5
 224 485 l 5
 308 485 l 5
 308 79 l 5
65 241 m 5
 65 317 l 5
 471 317 l 5
 471 241 l 5
 65 241 l 5
EndSplineSet
Validated: 5
EndChar

StartChar: AE
Encoding: 198 198 154
Width: 1284
VWidth: 0
Flags: W
HStem: 0 16.9854<814.659 959.094> 0 8<9.65918 32.2318 305.59 323.157 519.659 535.661> 389.912 16.0879<816.659 873.223> 782.886 16.9893<788 937.343> 792.5 8<521.159 537.051>
VStem: 611.659 175<39.2837 85 715.5 762.925> 786.696 0.962891<775.782 793> 1023.66 9.33301<202.912 243.405 552.507 593>
LayerCount: 2
Fore
SplineSet
623.659 262.001 m 1x27
 264.659 262.001 l 1
 264.659 246.001 l 1
 623.659 246.001 l 1
 623.659 262.001 l 1x27
596.157 786.5 m 13
 581.155 786.5 l 21
 209.659 178.998 l 5
 209.659 178.998 121.493 11.001 9.65918 8.25098 c 5
 9.6123 0.000976562 l 5
 103.604 11.7988 231.659 9.58594 323.157 0 c 5
 323.157 8 l 5x67
 323.157 8 167.533 26.7363 225.659 170.998 c 6
 596.157 786.5 l 13
872.159 16.9854 m 1xa7
 814.659 16.9854 783.986 27.8154 783.986 27.8154 c 1
 788.784 7.35938 l 0
 822.497 3.71289 872.159 0 872.159 0 c 1xa7
 985.326 0 1098.49 0 1211.66 0 c 9x67
 1254 282.993 l 25
 1244.66 283 l 17
 1244.66 283 1208.66 16.9854 872.159 16.9854 c 1xa7
519.659 0 m 1x6f
 640.031 0 754.431 0 872.159 0 c 1
 872.159 16.9854 l 1xa7
 846.659 16.9854 786.376 20.7432 786.659 85 c 1
 787.659 793.112 l 1
 760.2 789.931 730.504 786.802 695.659 786.561 c 1
 631.7 786.535 567.765 791.08 521.159 800.5 c 1
 521.159 792.5 l 1
 521.159 792.5 614.409 778.5 614.159 715.5 c 2
 611.659 85 l 2
 611.509 22 519.659 8 519.659 8 c 1
 519.659 0 l 1x6f
757.659 406 m 9
 757.659 389.912 l 17
 757.659 389.912 796.992 389.912 816.659 389.912 c 9
 816.659 389.912 1023.66 389.912 1023.66 202.912 c 1
 1032.99 202.911 l 9
 1032.99 593.001 l 17
 1023.66 593 l 1
 1023.66 406 816.659 406 816.659 406 c 17
 796.992 406 777.325 406 757.659 406 c 9
870.04 799.875 m 1x37
 830.706 798.709 820.409 796.646 786.696 793 c 0
 786.664 775.782 l 1
 786.664 775.782 808.915 782.886 870.045 782.886 c 0
 1083.99 782.886 1202.66 568.001 1202.66 568.001 c 9
 1212.06 568 l 25
 1134.83 771.5 l 17
 1134.83 771.5 1003.16 799.875 870.04 799.875 c 1x37
EndSplineSet
Validated: 37
EndChar

StartChar: dollar
Encoding: 36 36 156
Width: 612
Flags: W
HStem: -15 18<275.421 366.491> 797.997 17.001<244.284 391.25>
VStem: 50 130<440.7 695.5> 57.0371 14.9629<-1 24.251 291.617 305> 440.992 137.008<133.763 380.915> 504.375 8.375<782.914 804.667> 518.25 12.5<540.667 564.931>
LayerCount: 2
Fore
SplineSet
291.009 797.997 m 1xe8
 391.25 797.997 518.25 586.667 518.25 540.667 c 9
 530.75 540.667 l 25
 512.75 804.667 l 25
 504.375 804.667 l 17
 504.375 804.667 502.75 756.667 471.25 756.667 c 1
 431 756.667 403.5 814.998 295.01 814.998 c 1
 155 815 50 702 50 560 c 0xe6
 50 321.4 440.446 353.396 440.992 136 c 1
 440.992 68 413.593 2.99219 316 3 c 1
 222 3 107.659 162.733 75 305 c 1
 61.9355 305 l 1
 57.0371 -1 l 1
 57.0127 -0.902344 64.3008 -1.04297 72 -1 c 1xd8
 72 25 89 38 102 38 c 1
 132.25 38 238.81 -15 316.125 -15 c 0
 476.159 -15 578 100.357 578 237.831 c 1
 578 524 180 467 180 676 c 1
 180 715 186.199 798.31 291.009 797.997 c 1xe8
331 -82 m 5
 331.574 897.188 l 5
 281.118 897.642 l 5
 281.688 -82.042 l 5
 331 -82 l 5
EndSplineSet
Validated: 37
EndChar

StartChar: braceright
Encoding: 125 125 157
Width: 193
VWidth: 0
Flags: W
HStem: 357.344 9.125<98.959 156.033>
LayerCount: 2
Fore
SplineSet
37.543 -129.811 m 13
 34.8066 -140.715 l 21
 87.1484 -186.326 138.266 -145.693 159.488 -62.6875 c 5
 203.666 110.105 64.6953 189.121 96.959 315.32 c 5
 102.982 338.867 112.141 357.344 156.033 357.344 c 13
 156.033 366.469 l 21
 98.959 366.469 58.4551 368.286 36.5332 282.326 c 5
 -0.300781 138.256 132.34 46.2988 98.959 -85.127 c 5
 88.4609 -126.188 69.4629 -157.629 37.543 -129.811 c 13
37.543 853.623 m 21
 69.4629 881.441 88.4609 850 98.959 808.939 c 5
 132.34 677.514 -0.300781 585.557 36.5332 441.486 c 5
 58.4551 355.526 98.959 357.344 156.033 357.344 c 13
 156.033 366.469 l 21
 112.141 366.469 102.982 384.945 96.959 408.492 c 5
 64.6953 534.691 203.666 613.707 159.488 786.5 c 5
 138.266 869.506 87.1484 910.139 34.8066 864.527 c 13
 37.543 853.623 l 21
EndSplineSet
Validated: 37
EndChar

StartChar: exclamdown
Encoding: 161 161 158
Width: 282
Flags: W
HStem: 639.999 175.001<85.2343 195.626>
VStem: 58 166<14.5601 298.887 668.918 785.931>
LayerCount: 2
Fore
SplineSet
58 726.999 m 4
 58 679.999 92 639.999 140 639.999 c 4
 188 639.999 224 679.999 224 726.999 c 4
 224 775 188 815 140 815 c 4
 92 815 58 775 58 726.999 c 4
153 608 m 5
 132 608 l 5
 132 608 58 249 58 85 c 4
 58 40 79 -15 141 -15 c 4
 203 -15 224 40 224 85 c 4
 224 249 146 600 153 608 c 5
EndSplineSet
Validated: 41
EndChar

StartChar: divide
Encoding: 247 247 159
Width: 540
Flags: W
HStem: 79.5 112.001<227.537 311.972> 241 76<65 471> 367.994 112.001<227.537 311.972>
VStem: 216.88 106.24<90.8021 180.242 379.296 468.736>
LayerCount: 2
Fore
SplineSet
216.88 135.82 m 4
 216.88 165.901 238.64 191.501 269.36 191.501 c 4
 300.08 191.501 323.12 165.901 323.12 135.82 c 4
 323.12 105.101 300.08 79.5 269.36 79.5 c 4
 238.64 79.5 216.88 105.101 216.88 135.82 c 4
216.88 424.315 m 4
 216.88 454.395 238.64 479.995 269.36 479.995 c 4
 300.08 479.995 323.12 454.395 323.12 424.315 c 4
 323.12 393.594 300.08 367.994 269.36 367.994 c 4
 238.64 367.994 216.88 393.594 216.88 424.315 c 4
65 241 m 1
 65 317 l 1
 471 317 l 1
 471 241 l 1
 65 241 l 1
EndSplineSet
Validated: 1
EndChar

StartChar: numbersign
Encoding: 35 35 160
Width: 515
Flags: W
LayerCount: 2
Fore
SplineSet
25 252.212 m 1
 493.18 162.707 l 1
 493.18 192.879 l 1
 25 281.371 l 1
 25 252.212 l 1
25 397.505 m 1
 493.18 308 l 1
 493.18 338.172 l 1
 25 426.664 l 1
 25 397.505 l 1
273.18 0 m 1
 381.112 600.211 l 1
 350.939 600.211 l 1
 244.02 0 l 1
 273.18 0 l 1
144.897 -2.60547 m 1
 252.83 597.605 l 1
 222.657 597.605 l 1
 115.737 -2.60547 l 1
 144.897 -2.60547 l 1
EndSplineSet
Validated: 5
EndChar

StartChar: quoteright
Encoding: 263 8217 161
Width: 199
VWidth: 0
Flags: W
HStem: 577.735 242.3
LayerCount: 2
Fore
SplineSet
79.3545 577.735 m 9
 71.2783 594.719 l 17
 122.99 683.996 78.9901 691.996 56 708.875 c 1
 12.1768 742.506 43.3662 821.004 98.7412 820.035 c 0
 128.304 819.518 163.871 798.683 162.655 750.796 c 0
 160.988 684.976 128.828 642.199 79.3545 577.735 c 9
EndSplineSet
Validated: 33
EndChar

StartChar: asterisk
Encoding: 42 42 162
Width: 405
Flags: WO
HStem: 548 49.6045<42.4349 184.863 221.17 363.216>
VStem: 177.805 49.6045<413.089 552.104 590.184 733.871>
LayerCount: 2
Fore
SplineSet
208.625 587.082 m 5
 223.034 609.591 252.046 656.919 277.878 682.751 c 0
 287.386 692.26 303.445 699.444 316.545 686.344 c 0
 329.646 673.244 322.461 657.185 312.953 647.676 c 0
 288.289 623.011 243.598 594.164 219.884 579.583 c 1
 246.941 585.584 298.328 597.604 333.521 597.604 c 0
 346.968 597.604 363.404 591.329 363.404 572.803 c 0
 363.404 554.275 346.968 548 333.521 548 c 0
 298.616 548 246.567 559.219 219.505 565.675 c 1
 242.959 550.742 287.534 523.03 312.319 498.245 c 0
 321.827 488.736 329.012 472.677 315.911 459.576 c 0
 302.811 446.476 286.752 453.661 277.243 463.169 c 0
 252.822 487.59 224.299 531.645 209.585 555.53 c 1
 215.649 528.248 227.409 477.595 227.409 442.784 c 0
 227.409 429.338 221.134 412.901 202.606 412.901 c 0
 184.08 412.901 177.805 429.338 177.805 442.784 c 0
 177.805 476.289 188.14 525.589 194.68 553.425 c 1
 179.678 529.185 151.948 486.671 128.122 462.846 c 0
 118.613 453.337 102.554 446.152 89.4531 459.252 c 0
 76.3535 472.353 83.5381 488.412 93.0469 497.921 c 0
 118.06 522.934 163.23 550.929 186.503 565.76 c 1
 159.543 559.318 107.19 548 72.1309 548 c 0
 58.6836 548 42.2471 554.275 42.2471 572.803 c 0
 42.2471 591.329 58.6836 597.604 72.1309 597.604 c 0
 107.488 597.604 159.19 585.472 186.145 579.499 c 1
 162.61 593.945 117.308 623.104 92.4121 648 c 0
 82.9043 657.509 75.7188 673.567 88.8193 686.668 c 0
 101.92 699.77 117.979 692.584 127.488 683.076 c 0
 152.756 657.808 181.067 611.97 195.776 588.914 c 1
 189.375 615.598 177.805 668.727 177.805 704.175 c 0
 177.805 717.622 184.08 734.059 202.606 734.059 c 0
 221.134 734.059 227.409 717.622 227.409 704.175 c 0
 227.409 667.421 214.298 613.002 208.625 587.082 c 5
EndSplineSet
EndChar

StartChar: OE
Encoding: 264 338 163
Width: 1245
VWidth: 0
Flags: WO
HStem: -15 16.9512<363.095 435.777> 0 16.9854<775 919.435> 389.912 16.0879<777 833.564> 782.886 16.9893<747.596 895.684> 798.004 16.9854<355.031 444.416>
VStem: 28 198<242.327 539.624> 570.892 176.108<22 85 715.5 763.556> 745.037 1.96289<775.782 793> 984 9.33301<202.912 243.405 552.507 593>
LayerCount: 2
Fore
SplineSet
832.5 16.9854 m 1x6480
 775 16.9854 744.327 27.8154 744.327 27.8154 c 1
 749.125 7.35938 l 0
 782.838 3.71289 832.5 0 832.5 0 c 1
 945.667 0 1058.83 0 1172 0 c 9
 1214.34 282.993 l 25
 1205 283 l 17
 1205 283 1169 16.9854 832.5 16.9854 c 1x6480
480 -10 m 1
 666.5 35.5 714.771 0 832.5 0 c 1
 832.5 16.9854 l 1
 807 16.9854 746.717 20.7432 747 85 c 1x6680
 747 793.112 l 1x6580
 719.541 789.931 688.845 786.802 654 786.561 c 1
 590.041 786.535 525 790.75 482.25 803 c 1
 482.25 795 l 1
 482.25 795 571.75 778.5 571.5 715.5 c 2
 572 85 l 2
 572.05 22 480 -2 480 -2 c 1
 480 -10 l 1
718 406 m 9
 718 389.912 l 17
 718 389.912 757.333 389.912 777 389.912 c 9
 777 389.912 984 389.912 984 202.912 c 1
 993.333 202.911 l 9
 993.333 593.001 l 17
 984 593 l 1
 984 406 777 406 777 406 c 17
 757.333 406 737.666 406 718 406 c 9
828.381 799.875 m 1x3580
 789.047 798.709 778.75 796.646 745.037 793 c 0
 745.005 775.782 l 1
 745.005 775.782 767.256 782.886 828.386 782.886 c 0
 1042.33 782.886 1161 568.001 1161 568.001 c 9
 1170.4 568 l 25
 1093.17 771.5 l 17
 1093.17 771.5 961.5 799.875 828.381 799.875 c 1x3580
399.595 -15 m 1xac80
 595.503 -23.585 746.672 117.889 746.67 398.001 c 1
 746.67 696.001 545.582 814.989 399.928 814.989 c 1
 254.272 814.989 28 692 28 394 c 1
 28 113 203.432 -15 399.595 -15 c 1xac80
399.928 798.004 m 1
 506.438 796.09 570.892 709.14 570.892 387.14 c 1xae80
 570.892 88.1396 481.003 1.95117 399.468 1.95117 c 1
 317.932 1.95117 226 91 226 390 c 1
 226 712 293.416 796.09 399.928 798.004 c 1
EndSplineSet
EndChar
